<svg xmlns="http://www.w3.org/2000/svg" width="900" height="530" viewBox="0 0 900 530" role="img" aria-label="leaf practice part assembled from shaped beadwork parts"><rect width="900" height="530" rx="12" fill="#fffdf9"/><defs><radialGradient id="parts-shine" cx="30%" cy="25%"><stop stop-color="#fff" stop-opacity=".7"/><stop offset="1" stop-color="#fff" stop-opacity="0"/></radialGradient></defs><path d="M277.2315872712213 200.211845226708 L406.80789681780533 200.211845226708" stroke="#688d77" stroke-width=".8" opacity=".48"/><path d="M406.80789681780533 200.211845226708 L406.80789681780533 329.78815477329204" stroke="#688d77" stroke-width=".8" opacity=".48"/><path d="M406.80789681780533 329.78815477329204 L277.2315872712213 329.78815477329204" stroke="#688d77" stroke-width=".8" opacity=".48"/><path d="M277.2315872712213 329.78815477329204 L277.2315872712213 200.211845226708" stroke="#688d77" stroke-width=".8" opacity=".48"/><path d="M406.80789681780533 200.211845226708 L579.5763095465841 265" stroke="#688d77" stroke-width=".8" opacity=".48"/><path d="M579.5763095465841 265 L622.7684127287787 200.211845226708" stroke="#688d77" stroke-width=".8" opacity=".48"/><path d="M622.7684127287787 200.211845226708 L450 135.423690453416" stroke="#688d77" stroke-width=".8" opacity=".48"/><path d="M450 135.423690453416 L406.80789681780533 200.211845226708" stroke="#688d77" stroke-width=".8" opacity=".48"/><path d="M579.5763095465841 265 L622.7684127287787 329.78815477329204" stroke="#688d77" stroke-width=".8" opacity=".48"/><path d="M622.7684127287787 329.78815477329204 L450 394.576309546584" stroke="#688d77" stroke-width=".8" opacity=".48"/><path d="M450 394.576309546584 L406.80789681780533 329.78815477329204" stroke="#688d77" stroke-width=".8" opacity=".48"/><path d="M406.80789681780533 329.78815477329204 L579.5763095465841 265" stroke="#688d77" stroke-width=".8" opacity=".48"/><g data-pbead="B0001" opacity="1"><title>B0001 · leaf</title><circle cx="277.2315872712213" cy="200.211845226708" r="37.22358923516185" fill="#a9c8a0" stroke="#37543d80" stroke-width=".65"/><circle cx="277.2315872712213" cy="200.211845226708" r="37.22358923516185" fill="url(#parts-shine)"/><ellipse cx="277.2315872712213" cy="200.211845226708" rx="8.933661416438845" ry="4.4668307082194225" fill="#29463270"/></g><g data-pbead="B0002" opacity="1"><title>B0002 · leaf</title><circle cx="406.80789681780533" cy="200.211845226708" r="37.22358923516185" fill="#a9c8a0" stroke="#37543d80" stroke-width=".65"/><circle cx="406.80789681780533" cy="200.211845226708" r="37.22358923516185" fill="url(#parts-shine)"/><ellipse cx="406.80789681780533" cy="200.211845226708" rx="8.933661416438845" ry="4.4668307082194225" fill="#29463270"/></g><g data-pbead="B0003" opacity="1"><title>B0003 · leaf</title><circle cx="406.80789681780533" cy="329.78815477329204" r="37.22358923516185" fill="#a9c8a0" stroke="#37543d80" stroke-width=".65"/><circle cx="406.80789681780533" cy="329.78815477329204" r="37.22358923516185" fill="url(#parts-shine)"/><ellipse cx="406.80789681780533" cy="329.78815477329204" rx="8.933661416438845" ry="4.4668307082194225" fill="#29463270"/></g><g data-pbead="B0004" opacity="1"><title>B0004 · leaf</title><circle cx="277.2315872712213" cy="329.78815477329204" r="37.22358923516185" fill="#a9c8a0" stroke="#37543d80" stroke-width=".65"/><circle cx="277.2315872712213" cy="329.78815477329204" r="37.22358923516185" fill="url(#parts-shine)"/><ellipse cx="277.2315872712213" cy="329.78815477329204" rx="8.933661416438845" ry="4.4668307082194225" fill="#29463270"/></g><g data-pbead="B0005" opacity="1"><title>B0005 · leaf</title><circle cx="450" cy="135.423690453416" r="37.22358923516185" fill="#a9c8a0" stroke="#37543d80" stroke-width=".65"/><circle cx="450" cy="135.423690453416" r="37.22358923516185" fill="url(#parts-shine)"/><ellipse cx="450" cy="135.423690453416" rx="8.933661416438845" ry="4.4668307082194225" fill="#29463270"/></g><g data-pbead="B0006" opacity="1"><title>B0006 · leaf</title><circle cx="622.7684127287787" cy="200.211845226708" r="37.22358923516185" fill="#a9c8a0" stroke="#37543d80" stroke-width=".65"/><circle cx="622.7684127287787" cy="200.211845226708" r="37.22358923516185" fill="url(#parts-shine)"/><ellipse cx="622.7684127287787" cy="200.211845226708" rx="8.933661416438845" ry="4.4668307082194225" fill="#29463270"/></g><g data-pbead="B0007" opacity="1"><title>B0007 · leaf</title><circle cx="579.5763095465841" cy="265" r="37.22358923516185" fill="#a9c8a0" stroke="#37543d80" stroke-width=".65"/><circle cx="579.5763095465841" cy="265" r="37.22358923516185" fill="url(#parts-shine)"/><ellipse cx="579.5763095465841" cy="265" rx="8.933661416438845" ry="4.4668307082194225" fill="#29463270"/></g><g data-pbead="B0008" opacity="1"><title>B0008 · leaf</title><circle cx="622.7684127287787" cy="329.78815477329204" r="37.22358923516185" fill="#a9c8a0" stroke="#37543d80" stroke-width=".65"/><circle cx="622.7684127287787" cy="329.78815477329204" r="37.22358923516185" fill="url(#parts-shine)"/><ellipse cx="622.7684127287787" cy="329.78815477329204" rx="8.933661416438845" ry="4.4668307082194225" fill="#29463270"/></g><g data-pbead="B0009" opacity="1"><title>B0009 · leaf</title><circle cx="450" cy="394.576309546584" r="37.22358923516185" fill="#a9c8a0" stroke="#37543d80" stroke-width=".65"/><circle cx="450" cy="394.576309546584" r="37.22358923516185" fill="url(#parts-shine)"/><ellipse cx="450" cy="394.576309546584" rx="8.933661416438845" ry="4.4668307082194225" fill="#29463270"/></g><text x="22" y="513" font-family="Arial" font-size="12" fill="#907084">shaped beadwork · fine lines show thread; dashed lines are joins</text></svg>