<svg xmlns="http://www.w3.org/2000/svg" width="950" height="962" viewBox="0 0 560 567.3008294151878" role="img" aria-label="Stage 1: make leaf, connected bead and thread diagram"><title>make leaf · 9 new beads in 1 joined units</title><defs><marker id="parts-0-rose" viewBox="0 0 8 8" refX="6" refY="4" markerWidth="4.2" markerHeight="4.2" orient="auto"><path d="M0 0 8 4 0 8 2 4Z" fill="#b74472"/></marker><marker id="parts-0-green" viewBox="0 0 8 8" refX="6" refY="4" markerWidth="4.2" markerHeight="4.2" orient="auto"><path d="M0 0 8 4 0 8 2 4Z" fill="#387b79"/></marker></defs><rect width="560" height="567.3008294151878" rx="12" fill="#fffdf9"/><g font-family="Arial,sans-serif"><text x="25" y="29" font-size="23" font-weight="bold" fill="#3e6149">1. make leaf</text><text x="25" y="51" font-size="13" fill="#8e7080">9 beads · leaf · angle weave</text><g transform="translate(0 65)"><g data-stage-bead="B0001" opacity="1"><title>B0001 · A · 11/0 round seed bead · new in this stage</title><g transform="translate(222.0060944846523 374.3008294151877) rotate(-126.86989764584402)"><ellipse rx="8.5" ry="11" fill="#a9c8a0" fill-opacity="0.35" stroke="#b9517a" stroke-width="1.9"/><ellipse rx="7.5" ry="3.5" fill="#fffdf9" stroke="#a996a855" stroke-width=".6"/></g></g><g data-stage-bead="B0002" opacity="1"><title>B0002 · A · 11/0 round seed bead · new in this stage</title><g transform="translate(222.0060944846523 258.3130183844923) rotate(146.30993247402023)"><ellipse rx="8.5" ry="11" fill="#a9c8a0" fill-opacity="0.35" stroke="#b9517a" stroke-width="1.9"/><ellipse rx="7.5" ry="3.5" fill="#fffdf9" stroke="#a996a855" stroke-width=".6"/></g></g><g data-stage-bead="B0003" opacity="1"><title>B0003 · A · 11/0 round seed bead · new in this stage</title><g transform="translate(337.9939055153477 258.3130183844923) rotate(-146.30993247402023)"><ellipse rx="8.5" ry="11" fill="#a9c8a0" fill-opacity="0.35" stroke="#b9517a" stroke-width="1.9"/><ellipse rx="7.5" ry="3.5" fill="#fffdf9" stroke="#a996a855" stroke-width=".6"/></g></g><g data-stage-bead="B0004" opacity="1"><title>B0004 · A · 11/0 round seed bead · new in this stage</title><g transform="translate(337.9939055153477 374.3008294151877) rotate(126.86989764584402)"><ellipse rx="8.5" ry="11" fill="#a9c8a0" fill-opacity="0.35" stroke="#b9517a" stroke-width="1.9"/><ellipse rx="7.5" ry="3.5" fill="#fffdf9" stroke="#a996a855" stroke-width=".6"/></g></g><g data-stage-bead="B0005" opacity="1"><title>B0005 · A · 11/0 round seed bead · new in this stage</title><g transform="translate(164.01218896930462 219.65041470759385) rotate(-90)"><ellipse rx="8.5" ry="11" fill="#a9c8a0" fill-opacity="0.35" stroke="#b9517a" stroke-width="1.9"/><ellipse rx="7.5" ry="3.5" fill="#fffdf9" stroke="#a996a855" stroke-width=".6"/></g></g><g data-stage-bead="B0006" opacity="1"><title>B0006 · A · 11/0 round seed bead · new in this stage</title><g transform="translate(222.0060944846523 65) rotate(-53.13010235415598)"><ellipse rx="8.5" ry="11" fill="#a9c8a0" fill-opacity="0.35" stroke="#b9517a" stroke-width="1.9"/><ellipse rx="7.5" ry="3.5" fill="#fffdf9" stroke="#a996a855" stroke-width=".6"/></g></g><g data-stage-bead="B0007" opacity="1"><title>B0007 · A · 11/0 round seed bead · new in this stage</title><g transform="translate(280 103.66260367689847) rotate(-90)"><ellipse rx="8.5" ry="11" fill="#a9c8a0" fill-opacity="0.35" stroke="#b9517a" stroke-width="1.9"/><ellipse rx="7.5" ry="3.5" fill="#fffdf9" stroke="#a996a855" stroke-width=".6"/></g></g><g data-stage-bead="B0008" opacity="1"><title>B0008 · A · 11/0 round seed bead · new in this stage</title><g transform="translate(337.9939055153477 65) rotate(53.13010235415598)"><ellipse rx="8.5" ry="11" fill="#a9c8a0" fill-opacity="0.35" stroke="#b9517a" stroke-width="1.9"/><ellipse rx="7.5" ry="3.5" fill="#fffdf9" stroke="#a996a855" stroke-width=".6"/></g></g><g data-stage-bead="B0009" opacity="1"><title>B0009 · A · 11/0 round seed bead · new in this stage</title><g transform="translate(395.9878110306954 219.65041470759385) rotate(90)"><ellipse rx="8.5" ry="11" fill="#a9c8a0" fill-opacity="0.35" stroke="#b9517a" stroke-width="1.9"/><ellipse rx="7.5" ry="3.5" fill="#fffdf9" stroke="#a996a855" stroke-width=".6"/></g></g><path data-stage-pass="B0001" data-move="1" data-kind="pick" d="M226.9860944846523 381.8158294151877 L216.1860944846523 367.4158294151877" fill="none" stroke="#b74472" stroke-width="1.05" opacity="0.95"><title>Movement 1: pick B0001; close 4-bead loop</title></path><path d="M216.1860944846523 367.4158294151877 C196.9860944846523 341.8158294151877 188.47446762283718 281.92937923878145 215.10007704164818 264.17897295957414" fill="none" stroke="#fffdf9" stroke-width="3.5" opacity="1"/><path data-stage-link="1" data-ring-arc="false" d="M216.1860944846523 367.4158294151877 C196.9860944846523 341.8158294151877 188.47446762283718 281.92937923878145 215.10007704164818 264.17897295957414" fill="none" stroke="#b74472" stroke-width="1.15" opacity="0.95" /><path data-stage-pass="B0002" data-move="2" data-kind="pick" d="M215.10007704164818 264.17897295957414 L230.07698233972937 254.19436942751997" fill="none" stroke="#b74472" stroke-width="1.05" opacity="0.95"><title>Movement 2: pick B0002; close 4-bead loop</title></path><path d="M230.07698233972937 254.19436942751997 C256.7025917585404 236.44396314831263 303.58862584447786 236.00713674378528 330.21423526328886 253.75754302299262" fill="none" stroke="#fffdf9" stroke-width="3.5" opacity="1"/><path data-stage-link="2" data-ring-arc="false" d="M230.07698233972937 254.19436942751997 C256.7025917585404 236.44396314831263 303.58862584447786 236.00713674378528 330.21423526328886 253.75754302299262" fill="none" stroke="#b74472" stroke-width="1.15" opacity="0.95" marker-end="url(#parts-0-rose)"/><path data-stage-pass="B0003" data-move="3" data-kind="pick" d="M330.21423526328886 253.75754302299262 L345.19114056137005 263.74214655504676" fill="none" stroke="#b74472" stroke-width="1.05" opacity="0.95"><title>Movement 3: pick B0003; close 4-bead loop</title></path><path d="M345.19114056137005 263.74214655504676 C371.81674998018104 281.49255283425407 362.59390551534767 341.5008294151877 343.3939055153477 367.1008294151877" fill="none" stroke="#fffdf9" stroke-width="3.5" opacity="1"/><path data-stage-link="3" data-ring-arc="false" d="M345.19114056137005 263.74214655504676 C371.81674998018104 281.49255283425407 362.59390551534767 341.5008294151877 343.3939055153477 367.1008294151877" fill="none" stroke="#b74472" stroke-width="1.15" opacity="0.95" /><path data-stage-pass="B0004" data-move="4" data-kind="pick" d="M343.3939055153477 367.1008294151877 L332.5939055153477 381.5008294151877" fill="none" stroke="#b74472" stroke-width="1.05" opacity="0.95"><title>Movement 4: pick B0004; close 4-bead loop</title></path><path d="M332.5939055153477 381.5008294151877 C313.39390551534774 407.1008294151877 247.02609448465228 406.7858294151877 227.8260944846523 381.1858294151877" fill="none" stroke="#fffdf9" stroke-width="3.5" opacity="1"/><path data-stage-link="4" data-ring-arc="false" d="M332.5939055153477 381.5008294151877 C313.39390551534774 407.1008294151877 247.02609448465228 406.7858294151877 227.8260944846523 381.1858294151877" fill="none" stroke="#b74472" stroke-width="1.15" opacity="0.95" marker-end="url(#parts-0-rose)"/><path data-stage-pass="B0001" data-move="5" data-kind="pass" d="M227.8260944846523 381.1858294151877 L217.02609448465228 366.7858294151877" fill="none" stroke="#b74472" stroke-width="1.05" opacity="0.95"><title>Movement 5: pass B0001; close 4-bead loop</title></path><path d="M217.02609448465228 366.7858294151877 C197.8260944846523 341.1858294151877 187.8920324168007 281.0557264297267 214.5176418356117 263.3053201505194" fill="none" stroke="#fffdf9" stroke-width="3.5" opacity="1"/><path data-stage-link="5" data-ring-arc="false" d="M217.02609448465228 366.7858294151877 C197.8260944846523 341.1858294151877 187.8920324168007 281.0557264297267 214.5176418356117 263.3053201505194" fill="none" stroke="#b74472" stroke-width="1.15" opacity="0.95" /><path data-stage-pass="B0002" data-move="6" data-kind="pass" d="M214.5176418356117 263.3053201505194 L229.4945471336929 253.32071661846524" fill="none" stroke="#b74472" stroke-width="1.05" opacity="0.95"><title>Movement 6: pass B0002; close 4-bead loop</title></path><path d="M229.4945471336929 253.32071661846524 C256.1201565525039 235.5703103392579 278.95 144.66260367689847 278.95 112.66260367689847" fill="none" stroke="#fffdf9" stroke-width="3.5" opacity="1"/><path data-stage-link="6" data-ring-arc="false" d="M229.4945471336929 253.32071661846524 C256.1201565525039 235.5703103392579 278.95 144.66260367689847 278.95 112.66260367689847" fill="none" stroke="#b74472" stroke-width="1.15" opacity="0.95" marker-end="url(#parts-0-rose)"/><path data-stage-pass="B0007" data-move="7" data-kind="pick" d="M278.95 112.66260367689847 L278.95 94.66260367689847" fill="none" stroke="#b74472" stroke-width="1.05" opacity="0.95"><title>Movement 7: pick B0007; close 4-bead loop</title></path><path d="M278.95 94.66260367689847 C278.95 69.31501761237492 242.61464612336644 37.52193114838116 227.4060944846523 57.8" fill="none" stroke="#fffdf9" stroke-width="3.5" opacity="1"/><path data-stage-link="7" data-ring-arc="false" d="M278.95 94.66260367689847 C278.95 69.31501761237492 242.61464612336644 37.52193114838116 227.4060944846523 57.8" fill="none" stroke="#b74472" stroke-width="1.15" opacity="0.95" /><path data-stage-pass="B0006" data-move="8" data-kind="pick" d="M227.4060944846523 57.8 L216.6060944846523 72.2" fill="none" stroke="#b74472" stroke-width="1.05" opacity="0.95"><title>Movement 8: pick B0006; close 4-bead loop</title></path><path d="M216.6060944846523 72.2 C197.4060944846523 97.8 164.01218896930462 178.65041470759385 164.01218896930462 210.65041470759385" fill="none" stroke="#fffdf9" stroke-width="3.5" opacity="1"/><path data-stage-link="8" data-ring-arc="false" d="M216.6060944846523 72.2 C197.4060944846523 97.8 164.01218896930462 178.65041470759385 164.01218896930462 210.65041470759385" fill="none" stroke="#b74472" stroke-width="1.15" opacity="0.95" marker-end="url(#parts-0-rose)"/><path data-stage-pass="B0005" data-move="9" data-kind="pick" d="M164.01218896930462 210.65041470759385 L164.01218896930462 228.65041470759385" fill="none" stroke="#b74472" stroke-width="1.05" opacity="0.95"><title>Movement 9: pick B0005; close 4-bead loop</title></path><path d="M164.01218896930462 228.65041470759385 C164.01218896930462 252.7617588321211 193.87335565388128 275.8062346585939 213.93520662957522 262.4316673414646" fill="none" stroke="#fffdf9" stroke-width="3.5" opacity="1"/><path data-stage-link="9" data-ring-arc="false" d="M164.01218896930462 228.65041470759385 C164.01218896930462 252.7617588321211 193.87335565388128 275.8062346585939 213.93520662957522 262.4316673414646" fill="none" stroke="#b74472" stroke-width="1.15" opacity="0.95" /><path data-stage-pass="B0002" data-move="10" data-kind="pass" d="M213.93520662957522 262.4316673414646 L228.9121119276564 252.4470638094105" fill="none" stroke="#b74472" stroke-width="1.05" opacity="0.95"><title>Movement 10: pass B0002; close 4-bead loop</title></path><path d="M228.9121119276564 252.4470638094105 C255.5377213464674 234.69665753020317 280 144.66260367689847 280 112.66260367689847" fill="none" stroke="#fffdf9" stroke-width="3.5" opacity="1"/><path data-stage-link="10" data-ring-arc="false" d="M228.9121119276564 252.4470638094105 C255.5377213464674 234.69665753020317 280 144.66260367689847 280 112.66260367689847" fill="none" stroke="#b74472" stroke-width="1.15" opacity="0.95" marker-end="url(#parts-0-rose)"/><path data-stage-pass="B0007" data-move="11" data-kind="pass" d="M280 112.66260367689847 L280 94.66260367689847" fill="none" stroke="#b74472" stroke-width="1.05" opacity="0.95"><title>Movement 11: pass B0007; close 4-bead loop</title></path><path d="M280 94.66260367689847 C280 68.97223054703548 317.17968163742995 37.24770149610961 332.5939055153477 57.8" fill="none" stroke="#fffdf9" stroke-width="3.5" opacity="1"/><path data-stage-link="11" data-ring-arc="false" d="M280 94.66260367689847 C280 68.97223054703548 317.17968163742995 37.24770149610961 332.5939055153477 57.8" fill="none" stroke="#b74472" stroke-width="1.15" opacity="0.95" /><path data-stage-pass="B0008" data-move="12" data-kind="pick" d="M332.5939055153477 57.8 L343.3939055153477 72.2" fill="none" stroke="#b74472" stroke-width="1.05" opacity="0.95"><title>Movement 12: pick B0008; close 4-bead loop</title></path><path d="M343.3939055153477 72.2 C362.59390551534767 97.8 395.9878110306954 178.65041470759385 395.9878110306954 210.65041470759385" fill="none" stroke="#fffdf9" stroke-width="3.5" opacity="1"/><path data-stage-link="12" data-ring-arc="false" d="M343.3939055153477 72.2 C362.59390551534767 97.8 395.9878110306954 178.65041470759385 395.9878110306954 210.65041470759385" fill="none" stroke="#b74472" stroke-width="1.15" opacity="0.95" marker-end="url(#parts-0-rose)"/><path data-stage-pass="B0009" data-move="13" data-kind="pick" d="M395.9878110306954 210.65041470759385 L395.9878110306954 228.65041470759385" fill="none" stroke="#b74472" stroke-width="1.05" opacity="0.95"><title>Movement 13: pick B0009; close 4-bead loop</title></path><path d="M395.9878110306954 228.65041470759385 C395.9878110306954 252.95628677556948 365.99728377570364 276.3509657515234 345.77357576740656 262.868493745992" fill="none" stroke="#fffdf9" stroke-width="3.5" opacity="1"/><path data-stage-link="13" data-ring-arc="false" d="M395.9878110306954 228.65041470759385 C395.9878110306954 252.95628677556948 365.99728377570364 276.3509657515234 345.77357576740656 262.868493745992" fill="none" stroke="#b74472" stroke-width="1.15" opacity="0.95" /><path data-stage-pass="B0003" data-move="14" data-kind="pass" d="M345.77357576740656 262.868493745992 L330.79667046932536 252.88389021393786" fill="none" stroke="#b74472" stroke-width="1.05" opacity="0.95"><title>Movement 14: pass B0003; close 4-bead loop</title></path><path d="M330.79667046932536 252.88389021393786 C304.17106105051437 235.13348393473052 281.05 144.66260367689847 281.05 112.66260367689847" fill="none" stroke="#fffdf9" stroke-width="3.5" opacity="1"/><path data-stage-link="14" data-ring-arc="false" d="M330.79667046932536 252.88389021393786 C304.17106105051437 235.13348393473052 281.05 144.66260367689847 281.05 112.66260367689847" fill="none" stroke="#b74472" stroke-width="1.15" opacity="0.95" marker-end="url(#parts-0-rose)"/><path data-stage-pass="B0007" data-move="15" data-kind="pass" d="M281.05 112.66260367689847 L281.05 94.66260367689847" fill="none" stroke="#b74472" stroke-width="1.05" opacity="0.95"><title>Movement 15: pass B0007; close 4-bead loop</title></path><g opacity="1" pointer-events="none"><ellipse transform="translate(222.0060944846523 374.3008294151877) rotate(-126.86989764584402)" rx="8.5" ry="11" fill="none" stroke="#b9517a" stroke-width="1.4"/></g><g opacity="1" pointer-events="none"><ellipse transform="translate(222.0060944846523 258.3130183844923) rotate(146.30993247402023)" rx="8.5" ry="11" fill="none" stroke="#b9517a" stroke-width="1.4"/></g><g opacity="1" pointer-events="none"><ellipse transform="translate(337.9939055153477 258.3130183844923) rotate(-146.30993247402023)" rx="8.5" ry="11" fill="none" stroke="#b9517a" stroke-width="1.4"/></g><g opacity="1" pointer-events="none"><ellipse transform="translate(337.9939055153477 374.3008294151877) rotate(126.86989764584402)" rx="8.5" ry="11" fill="none" stroke="#b9517a" stroke-width="1.4"/></g><g opacity="1" pointer-events="none"><ellipse transform="translate(164.01218896930462 219.65041470759385) rotate(-90)" rx="8.5" ry="11" fill="none" stroke="#b9517a" stroke-width="1.4"/></g><g opacity="1" pointer-events="none"><ellipse transform="translate(222.0060944846523 65) rotate(-53.13010235415598)" rx="8.5" ry="11" fill="none" stroke="#b9517a" stroke-width="1.4"/></g><g opacity="1" pointer-events="none"><ellipse transform="translate(280 103.66260367689847) rotate(-90)" rx="8.5" ry="11" fill="none" stroke="#b9517a" stroke-width="1.4"/></g><g opacity="1" pointer-events="none"><ellipse transform="translate(337.9939055153477 65) rotate(53.13010235415598)" rx="8.5" ry="11" fill="none" stroke="#b9517a" stroke-width="1.4"/></g><g opacity="1" pointer-events="none"><ellipse transform="translate(395.9878110306954 219.65041470759385) rotate(90)" rx="8.5" ry="11" fill="none" stroke="#b9517a" stroke-width="1.4"/></g><circle cx="226.9860944846523" cy="381.8158294151877" r="4" fill="#387b79" stroke="#fffdf9" stroke-width="1.5"/><text x="218.9860944846523" y="405.8158294151877" fill="#387b79" font-size="12" font-weight="bold">start</text><rect x="277.05" y="90.66260367689847" width="8" height="8" fill="#b74472" stroke="#fffdf9" stroke-width="1.5"/><text x="295.05" y="76.66260367689847" text-anchor="start" fill="#b74472" stroke="#fffdf9" stroke-width="3" paint-order="stroke" font-size="12" font-weight="bold">finish</text></g><text x="25" y="525.3008294151878" font-size="12" fill="#b74472">rose: weave</text><text x="165" y="525.3008294151878" font-size="12" fill="#387b79">green: reposition</text><text x="345" y="525.3008294151878" font-size="12" fill="#839287">pale beads: already made</text><text x="25" y="548.3008294151878" font-size="11" fill="#887782">Bead IDs stay the same across steps. ★ fresh line · crossings are not joins.</text></g></svg>