<svg xmlns="http://www.w3.org/2000/svg" width="950" height="947" viewBox="0 0 560 558" role="img" aria-label="Stage 1: make pointed tip, connected bead and thread diagram"><title>make pointed tip · 8 new beads in 1 joined units</title><defs><marker id="parts-0-rose" viewBox="0 0 8 8" refX="6" refY="4" markerWidth="4.2" markerHeight="4.2" orient="auto"><path d="M0 0 8 4 0 8 2 4Z" fill="#b74472"/></marker><marker id="parts-0-green" viewBox="0 0 8 8" refX="6" refY="4" markerWidth="4.2" markerHeight="4.2" orient="auto"><path d="M0 0 8 4 0 8 2 4Z" fill="#387b79"/></marker></defs><rect width="560" height="558" rx="12" fill="#fffdf9"/><g font-family="Arial,sans-serif"><text x="25" y="29" font-size="23" font-weight="bold" fill="#3e6149">1. make pointed tip</text><text x="25" y="51" font-size="13" fill="#8e7080">8 beads · cone · angle weave</text><g transform="translate(0 65)"><g data-stage-bead="B0001" opacity="1"><title>B0001 · A · 11/0 round seed bead · new in this stage</title><g transform="translate(280 365) rotate(180)"><ellipse rx="8.5" ry="11" fill="#a9c8a0" fill-opacity="0.35" stroke="#b9517a" stroke-width="1.9"/><ellipse rx="7.5" ry="3.5" fill="#fffdf9" stroke="#a996a855" stroke-width=".6"/></g></g><g data-stage-bead="B0002" opacity="1"><title>B0002 · A · 11/0 round seed bead · new in this stage</title><g transform="translate(355 290) rotate(45)"><ellipse rx="8.5" ry="11" fill="#a9c8a0" fill-opacity="0.35" stroke="#b9517a" stroke-width="1.9"/><ellipse rx="7.5" ry="3.5" fill="#fffdf9" stroke="#a996a855" stroke-width=".6"/></g></g><g data-stage-bead="B0003" opacity="1"><title>B0003 · A · 11/0 round seed bead · new in this stage</title><g transform="translate(205 290) rotate(-45)"><ellipse rx="8.5" ry="11" fill="#a9c8a0" fill-opacity="0.35" stroke="#b9517a" stroke-width="1.9"/><ellipse rx="7.5" ry="3.5" fill="#fffdf9" stroke="#a996a855" stroke-width=".6"/></g></g><g data-stage-bead="B0004" opacity="1"><title>B0004 · A · 11/0 round seed bead · new in this stage</title><g transform="translate(430 215) rotate(90)"><ellipse rx="8.5" ry="11" fill="#a9c8a0" fill-opacity="0.35" stroke="#b9517a" stroke-width="1.9"/><ellipse rx="7.5" ry="3.5" fill="#fffdf9" stroke="#a996a855" stroke-width=".6"/></g></g><g data-stage-bead="B0005" opacity="1"><title>B0005 · A · 11/0 round seed bead · new in this stage</title><g transform="translate(355 140) rotate(-45)"><ellipse rx="8.5" ry="11" fill="#a9c8a0" fill-opacity="0.35" stroke="#b9517a" stroke-width="1.9"/><ellipse rx="7.5" ry="3.5" fill="#fffdf9" stroke="#a996a855" stroke-width=".6"/></g></g><g data-stage-bead="B0006" opacity="1"><title>B0006 · A · 11/0 round seed bead · new in this stage</title><g transform="translate(280 65) rotate(0)"><ellipse rx="8.5" ry="11" fill="#a9c8a0" fill-opacity="0.35" stroke="#b9517a" stroke-width="1.9"/><ellipse rx="7.5" ry="3.5" fill="#fffdf9" stroke="#a996a855" stroke-width=".6"/></g></g><g data-stage-bead="B0007" opacity="1"><title>B0007 · A · 11/0 round seed bead · new in this stage</title><g transform="translate(205 140) rotate(-135)"><ellipse rx="8.5" ry="11" fill="#a9c8a0" fill-opacity="0.35" stroke="#b9517a" stroke-width="1.9"/><ellipse rx="7.5" ry="3.5" fill="#fffdf9" stroke="#a996a855" stroke-width=".6"/></g></g><g data-stage-bead="B0008" opacity="1"><title>B0008 · A · 11/0 round seed bead · new in this stage</title><g transform="translate(130 215) rotate(-90)"><ellipse rx="8.5" ry="11" fill="#a9c8a0" fill-opacity="0.35" stroke="#b9517a" stroke-width="1.9"/><ellipse rx="7.5" ry="3.5" fill="#fffdf9" stroke="#a996a855" stroke-width=".6"/></g></g><path data-stage-pass="B0001" data-move="1" data-kind="pick" d="M271 366.05 L289 366.05" fill="none" stroke="#b74472" stroke-width="1.05" opacity="0.95"><title>Movement 1: pick B0001; close 3-bead loop</title></path><path d="M289 366.05 C321 366.05 385.10507120901724 317.87768484827967 362.4776542110477 295.25026785031014" fill="none" stroke="#fffdf9" stroke-width="3.5" opacity="1"/><path data-stage-link="1" data-ring-arc="false" d="M289 366.05 C321 366.05 385.10507120901724 317.87768484827967 362.4776542110477 295.25026785031014" fill="none" stroke="#b74472" stroke-width="1.15" opacity="0.95" /><path data-stage-pass="B0002" data-move="2" data-kind="pick" d="M362.4776542110477 295.25026785031014 L349.74973214968986 282.5223457889523" fill="none" stroke="#b74472" stroke-width="1.05" opacity="0.95"><title>Movement 2: pick B0002; close 3-bead loop</title></path><path d="M349.74973214968986 282.5223457889523 C327.12231515172033 259.89492879098276 233.24891590840258 260.26615985110567 210.62149891043305 282.8935768490752" fill="none" stroke="#fffdf9" stroke-width="3.5" opacity="1"/><path data-stage-link="2" data-ring-arc="false" d="M349.74973214968986 282.5223457889523 C327.12231515172033 259.89492879098276 233.24891590840258 260.26615985110567 210.62149891043305 282.8935768490752" fill="none" stroke="#b74472" stroke-width="1.15" opacity="0.95" marker-end="url(#parts-0-rose)"/><path data-stage-pass="B0003" data-move="3" data-kind="pick" d="M210.62149891043305 282.8935768490752 L197.8935768490752 295.62149891043305" fill="none" stroke="#b74472" stroke-width="1.05" opacity="0.95"><title>Movement 3: pick B0003; close 3-bead loop</title></path><path d="M197.8935768490752 295.62149891043305 C175.26615985110567 318.2489159084026 239 365 271 365" fill="none" stroke="#fffdf9" stroke-width="3.5" opacity="1"/><path data-stage-link="3" data-ring-arc="false" d="M197.8935768490752 295.62149891043305 C175.26615985110567 318.2489159084026 239 365 271 365" fill="none" stroke="#b74472" stroke-width="1.15" opacity="0.95" /><path data-stage-pass="B0001" data-move="4" data-kind="pass" d="M271 365 L289 365" fill="none" stroke="#b74472" stroke-width="1.05" opacity="0.95"><title>Movement 4: pass B0001; close 3-bead loop</title></path><path d="M289 365 C321 365 384.36260908877136 318.62014696852555 361.73519209080183 295.992729970556" fill="none" stroke="#fffdf9" stroke-width="3.5" opacity="1"/><path data-stage-link="4" data-ring-arc="false" d="M289 365 C321 365 384.36260908877136 318.62014696852555 361.73519209080183 295.992729970556" fill="none" stroke="#b74472" stroke-width="1.15" opacity="0.95" marker-end="url(#parts-0-rose)"/><path data-stage-pass="B0002" data-move="5" data-kind="pass" d="M361.73519209080183 295.992729970556 L349.007270029444 283.26480790919817" fill="none" stroke="#b74472" stroke-width="1.05" opacity="0.95"><title>Movement 5: pass B0002; close 3-bead loop</title></path><path d="M349.007270029444 283.26480790919817 C326.37985303147445 260.63739091122864 325.26615985110567 168.24891590840258 347.8935768490752 145.62149891043305" fill="none" stroke="#fffdf9" stroke-width="3.5" opacity="1"/><path data-stage-link="5" data-ring-arc="false" d="M349.007270029444 283.26480790919817 C326.37985303147445 260.63739091122864 325.26615985110567 168.24891590840258 347.8935768490752 145.62149891043305" fill="none" stroke="#b74472" stroke-width="1.15" opacity="0.95" /><path data-stage-pass="B0005" data-move="6" data-kind="pick" d="M347.8935768490752 145.62149891043305 L360.62149891043305 132.8935768490752" fill="none" stroke="#b74472" stroke-width="1.05" opacity="0.95"><title>Movement 6: pick B0005; close 3-bead loop</title></path><path d="M360.62149891043305 132.8935768490752 C383.2489159084026 110.26615985110568 431.05 174 431.05 206" fill="none" stroke="#fffdf9" stroke-width="3.5" opacity="1"/><path data-stage-link="6" data-ring-arc="false" d="M360.62149891043305 132.8935768490752 C383.2489159084026 110.26615985110568 431.05 174 431.05 206" fill="none" stroke="#b74472" stroke-width="1.15" opacity="0.95" marker-end="url(#parts-0-rose)"/><path data-stage-pass="B0004" data-move="7" data-kind="pick" d="M431.05 206 L431.05 224" fill="none" stroke="#b74472" stroke-width="1.05" opacity="0.95"><title>Movement 7: pick B0004; close 3-bead loop</title></path><path d="M431.05 224 C431.05 256 383.62014696852555 319.36260908877136 360.992729970556 296.73519209080183" fill="none" stroke="#fffdf9" stroke-width="3.5" opacity="1"/><path data-stage-link="7" data-ring-arc="false" d="M431.05 224 C431.05 256 383.62014696852555 319.36260908877136 360.992729970556 296.73519209080183" fill="none" stroke="#b74472" stroke-width="1.15" opacity="0.95" /><path data-stage-pass="B0002" data-move="8" data-kind="pass" d="M360.992729970556 296.73519209080183 L348.26480790919817 284.007270029444" fill="none" stroke="#b74472" stroke-width="1.05" opacity="0.95"><title>Movement 8: pass B0002; close 3-bead loop</title></path><path d="M348.26480790919817 284.007270029444 C325.63739091122864 261.37985303147445 326.00862197135154 168.99137802864846 348.6360389693211 146.36396103067892" fill="none" stroke="#fffdf9" stroke-width="3.5" opacity="1"/><path data-stage-link="8" data-ring-arc="false" d="M348.26480790919817 284.007270029444 C325.63739091122864 261.37985303147445 326.00862197135154 168.99137802864846 348.6360389693211 146.36396103067892" fill="none" stroke="#b74472" stroke-width="1.15" opacity="0.95" marker-end="url(#parts-0-rose)"/><path data-stage-pass="B0005" data-move="9" data-kind="pass" d="M348.6360389693211 146.36396103067892 L361.3639610306789 133.63603896932108" fill="none" stroke="#b74472" stroke-width="1.05" opacity="0.95"><title>Movement 9: pass B0005; close 3-bead loop</title></path><path d="M361.3639610306789 133.63603896932108 C383.99137802864846 111.00862197135156 321 64.475 289 64.475" fill="none" stroke="#fffdf9" stroke-width="3.5" opacity="1"/><path data-stage-link="9" data-ring-arc="false" d="M361.3639610306789 133.63603896932108 C383.99137802864846 111.00862197135156 321 64.475 289 64.475" fill="none" stroke="#b74472" stroke-width="1.15" opacity="0.95" /><path data-stage-pass="B0006" data-move="10" data-kind="pick" d="M289 64.475 L271 64.475" fill="none" stroke="#b74472" stroke-width="1.05" opacity="0.95"><title>Movement 10: pick B0006; close 3-bead loop</title></path><path d="M271 64.475 C239 64.475 175.63739091122864 111.3798530314745 198.26480790919814 134.00727002944402" fill="none" stroke="#fffdf9" stroke-width="3.5" opacity="1"/><path data-stage-link="10" data-ring-arc="false" d="M271 64.475 C239 64.475 175.63739091122864 111.3798530314745 198.26480790919814 134.00727002944402" fill="none" stroke="#b74472" stroke-width="1.15" opacity="0.95" marker-end="url(#parts-0-rose)"/><path data-stage-pass="B0007" data-move="11" data-kind="pick" d="M198.26480790919814 134.00727002944402 L210.99272997055598 146.73519209080186" fill="none" stroke="#b74472" stroke-width="1.05" opacity="0.95"><title>Movement 11: pick B0007; close 3-bead loop</title></path><path d="M210.99272997055598 146.73519209080186 C233.6201469685255 169.36260908877136 326.7510840915974 169.73384014889433 349.37850108956695 147.1064231509248" fill="none" stroke="#fffdf9" stroke-width="3.5" opacity="1"/><path data-stage-link="11" data-ring-arc="false" d="M210.99272997055598 146.73519209080186 C233.6201469685255 169.36260908877136 326.7510840915974 169.73384014889433 349.37850108956695 147.1064231509248" fill="none" stroke="#b74472" stroke-width="1.15" opacity="0.95" /><path data-stage-pass="B0005" data-move="12" data-kind="pass" d="M349.37850108956695 147.1064231509248 L362.1064231509248 134.37850108956695" fill="none" stroke="#b74472" stroke-width="1.05" opacity="0.95"><title>Movement 12: pass B0005; close 3-bead loop</title></path><path d="M362.1064231509248 134.37850108956695 C384.73384014889433 111.75108409159743 430 174 430 206" fill="none" stroke="#fffdf9" stroke-width="3.5" opacity="1"/><path data-stage-link="12" data-ring-arc="false" d="M362.1064231509248 134.37850108956695 C384.73384014889433 111.75108409159743 430 174 430 206" fill="none" stroke="#b74472" stroke-width="1.15" opacity="0.95" marker-end="url(#parts-0-rose)"/><path data-stage-pass="B0004" data-move="13" data-kind="pass" d="M430 206 L430 224" fill="none" stroke="#b74472" stroke-width="1.05" opacity="0.95"><title>Movement 13: pass B0004; close 4-bead loop</title></path><path d="M430 224 C430 256 321 363.95 289 363.95" fill="none" stroke="#fffdf9" stroke-width="3.5" opacity="1"/><path data-stage-link="13" data-ring-arc="false" d="M430 224 C430 256 321 363.95 289 363.95" fill="none" stroke="#b74472" stroke-width="1.15" opacity="0.95" /><path data-stage-pass="B0001" data-move="14" data-kind="pass" d="M289 363.95 L271 363.95" fill="none" stroke="#b74472" stroke-width="1.05" opacity="0.95"><title>Movement 14: pass B0001; close 4-bead loop</title></path><path d="M271 363.95 C239 363.95 129.475 256 129.475 224" fill="none" stroke="#fffdf9" stroke-width="3.5" opacity="1"/><path data-stage-link="14" data-ring-arc="false" d="M271 363.95 C239 363.95 129.475 256 129.475 224" fill="none" stroke="#b74472" stroke-width="1.15" opacity="0.95" marker-end="url(#parts-0-rose)"/><path data-stage-pass="B0008" data-move="15" data-kind="pick" d="M129.475 224 L129.475 206" fill="none" stroke="#b74472" stroke-width="1.05" opacity="0.95"><title>Movement 15: pick B0008; close 4-bead loop</title></path><path d="M129.475 206 C129.475 174 239 65.525 271 65.525" fill="none" stroke="#fffdf9" stroke-width="3.5" opacity="1"/><path data-stage-link="15" data-ring-arc="false" d="M129.475 206 C129.475 174 239 65.525 271 65.525" fill="none" stroke="#b74472" stroke-width="1.15" opacity="0.95" /><path data-stage-pass="B0006" data-move="16" data-kind="pass" d="M271 65.525 L289 65.525" fill="none" stroke="#b74472" stroke-width="1.05" opacity="0.95"><title>Movement 16: pass B0006; close 4-bead loop</title></path><path d="M289 65.525 C321 65.525 428.95 174 428.95 206" fill="none" stroke="#fffdf9" stroke-width="3.5" opacity="1"/><path data-stage-link="16" data-ring-arc="false" d="M289 65.525 C321 65.525 428.95 174 428.95 206" fill="none" stroke="#b74472" stroke-width="1.15" opacity="0.95" marker-end="url(#parts-0-rose)"/><path data-stage-pass="B0004" data-move="17" data-kind="pass" d="M428.95 206 L428.95 224" fill="none" stroke="#b74472" stroke-width="1.05" opacity="0.95"><title>Movement 17: pass B0004; close 4-bead loop</title></path><path d="M428.95 224 C428.95 256 382.87768484827967 320.10507120901724 360.25026785031014 297.4776542110477" fill="none" stroke="#fffdf9" stroke-width="3.5" opacity="1"/><path data-stage-link="17" data-ring-arc="false" d="M428.95 224 C428.95 256 382.87768484827967 320.10507120901724 360.25026785031014 297.4776542110477" fill="none" stroke="#387b79" stroke-width="1.15" opacity="0.95" /><path data-stage-pass="B0002" data-move="18" data-kind="pass" d="M360.25026785031014 297.4776542110477 L347.5223457889523 284.74973214968986" fill="none" stroke="#387b79" stroke-width="1.05" opacity="0.95"><title>Movement 18: pass B0002; close 3-bead loop</title></path><path d="M347.5223457889523 284.74973214968986 C324.89492879098276 262.12231515172033 233.99137802864846 261.00862197135154 211.36396103067892 283.6360389693211" fill="none" stroke="#fffdf9" stroke-width="3.5" opacity="1"/><path data-stage-link="18" data-ring-arc="false" d="M347.5223457889523 284.74973214968986 C324.89492879098276 262.12231515172033 233.99137802864846 261.00862197135154 211.36396103067892 283.6360389693211" fill="none" stroke="#b74472" stroke-width="1.15" opacity="0.95" marker-end="url(#parts-0-rose)"/><path data-stage-pass="B0003" data-move="19" data-kind="pass" d="M211.36396103067892 283.6360389693211 L198.63603896932108 296.3639610306789" fill="none" stroke="#b74472" stroke-width="1.05" opacity="0.95"><title>Movement 19: pass B0003; close 3-bead loop</title></path><path d="M198.63603896932108 296.3639610306789 C176.00862197135154 318.99137802864846 130.525 256 130.525 224" fill="none" stroke="#fffdf9" stroke-width="3.5" opacity="1"/><path data-stage-link="19" data-ring-arc="false" d="M198.63603896932108 296.3639610306789 C176.00862197135154 318.99137802864846 130.525 256 130.525 224" fill="none" stroke="#b74472" stroke-width="1.15" opacity="0.95" /><path data-stage-pass="B0008" data-move="20" data-kind="pass" d="M130.525 224 L130.525 206" fill="none" stroke="#b74472" stroke-width="1.05" opacity="0.95"><title>Movement 20: pass B0008; close 3-bead loop</title></path><path d="M130.525 206 C130.525 174 176.3798530314745 110.63739091122862 199.00727002944402 133.26480790919814" fill="none" stroke="#fffdf9" stroke-width="3.5" opacity="1"/><path data-stage-link="20" data-ring-arc="false" d="M130.525 206 C130.525 174 176.3798530314745 110.63739091122862 199.00727002944402 133.26480790919814" fill="none" stroke="#b74472" stroke-width="1.15" opacity="0.95" marker-end="url(#parts-0-rose)"/><path data-stage-pass="B0007" data-move="21" data-kind="pass" d="M199.00727002944402 133.26480790919814 L211.73519209080186 145.99272997055598" fill="none" stroke="#b74472" stroke-width="1.05" opacity="0.95"><title>Movement 21: pass B0007; close 3-bead loop</title></path><path d="M211.73519209080186 145.99272997055598 C234.36260908877136 168.6201469685255 234.73384014889433 261.7510840915974 212.1064231509248 284.37850108956695" fill="none" stroke="#fffdf9" stroke-width="3.5" opacity="1"/><path data-stage-link="21" data-ring-arc="false" d="M211.73519209080186 145.99272997055598 C234.36260908877136 168.6201469685255 234.73384014889433 261.7510840915974 212.1064231509248 284.37850108956695" fill="none" stroke="#b74472" stroke-width="1.15" opacity="0.95" /><path data-stage-pass="B0003" data-move="22" data-kind="pass" d="M212.1064231509248 284.37850108956695 L199.37850108956695 297.1064231509248" fill="none" stroke="#b74472" stroke-width="1.05" opacity="0.95"><title>Movement 22: pass B0003; close 3-bead loop</title></path><g opacity="1" pointer-events="none"><ellipse transform="translate(280 365) rotate(180)" rx="8.5" ry="11" fill="none" stroke="#b9517a" stroke-width="1.4"/></g><g opacity="1" pointer-events="none"><ellipse transform="translate(355 290) rotate(45)" rx="8.5" ry="11" fill="none" stroke="#b9517a" stroke-width="1.4"/></g><g opacity="1" pointer-events="none"><ellipse transform="translate(205 290) rotate(-45)" rx="8.5" ry="11" fill="none" stroke="#b9517a" stroke-width="1.4"/></g><g opacity="1" pointer-events="none"><ellipse transform="translate(430 215) rotate(90)" rx="8.5" ry="11" fill="none" stroke="#b9517a" stroke-width="1.4"/></g><g opacity="1" pointer-events="none"><ellipse transform="translate(355 140) rotate(-45)" rx="8.5" ry="11" fill="none" stroke="#b9517a" stroke-width="1.4"/></g><g opacity="1" pointer-events="none"><ellipse transform="translate(280 65) rotate(0)" rx="8.5" ry="11" fill="none" stroke="#b9517a" stroke-width="1.4"/></g><g opacity="1" pointer-events="none"><ellipse transform="translate(205 140) rotate(-135)" rx="8.5" ry="11" fill="none" stroke="#b9517a" stroke-width="1.4"/></g><g opacity="1" pointer-events="none"><ellipse transform="translate(130 215) rotate(-90)" rx="8.5" ry="11" fill="none" stroke="#b9517a" stroke-width="1.4"/></g><circle cx="271" cy="366.05" r="4" fill="#387b79" stroke="#fffdf9" stroke-width="1.5"/><text x="263" y="390.05" fill="#387b79" font-size="12" font-weight="bold">start</text><rect x="195.37850108956695" y="293.1064231509248" width="8" height="8" fill="#b74472" stroke="#fffdf9" stroke-width="1.5"/><text x="213.37850108956695" y="279.1064231509248" text-anchor="start" fill="#b74472" stroke="#fffdf9" stroke-width="3" paint-order="stroke" font-size="12" font-weight="bold">finish</text></g><text x="25" y="516" font-size="12" fill="#b74472">rose: weave</text><text x="165" y="516" font-size="12" fill="#387b79">green: reposition</text><text x="345" y="516" font-size="12" fill="#839287">pale beads: already made</text><text x="25" y="539" font-size="11" fill="#887782">Bead IDs stay the same across steps. ★ fresh line · crossings are not joins.</text></g></svg>