<svg xmlns="http://www.w3.org/2000/svg" width="900" height="530" viewBox="0 0 900 530" role="img" aria-label="garden frog assembled from shaped beadwork parts"><rect width="900" height="530" rx="12" fill="#fffdf9"/><defs><radialGradient id="parts-shine" cx="30%" cy="25%"><stop stop-color="#fff" stop-opacity=".7"/><stop offset="1" stop-color="#fff" stop-opacity="0"/></radialGradient></defs><path d="M408.52356074402405 238.53114498282054 L385.3758569265183 202.37702694189534" stroke="#ad7591" stroke-width="1.2" stroke-dasharray="3 3"/><path d="M461.492398523294 202.37702694189534 L514.6241430734817 202.37702694189534" stroke="#ad7591" stroke-width="1.2" stroke-dasharray="3 3"/><path d="M400.4813525190099 332.8814948281782 L341.6747336294692 338.3543899865349" stroke="#ad7591" stroke-width="1.2" stroke-dasharray="3 3"/><path d="M361.40979090694776 307.2208380730418 L317.754393714112 307.88675341537845" stroke="#ad7591" stroke-width="1.2" stroke-dasharray="3 3"/><path d="M516.6158795308322 332.8814948281782 L558.3252663705308 338.3543899865349" stroke="#ad7591" stroke-width="1.2" stroke-dasharray="3 3"/><path d="M542.7584904137842 307.2208380730418 L582.245606285888 307.88675341537845" stroke="#ad7591" stroke-width="1.2" stroke-dasharray="3 3"/><path d="M484.20262865597897 127.96334473586563 L460.5691935069931 127.96334473586563" stroke="#688d77" stroke-width=".8" opacity=".48"/><path d="M460.5691935069931 127.96334473586563 L422.3294921650174 127.96334473586563" stroke="#688d77" stroke-width=".8" opacity=".48"/><path d="M422.3294921650174 127.96334473586563 L422.3294921650174 127.96334473586563" stroke="#688d77" stroke-width=".8" opacity=".48"/><path d="M422.3294921650174 127.96334473586563 L460.5691935069931 127.96334473586563" stroke="#688d77" stroke-width=".8" opacity=".48"/><path d="M460.5691935069931 127.96334473586563 L484.20262865597897 127.96334473586563" stroke="#688d77" stroke-width=".8" opacity=".48"/><path d="M484.20262865597897 127.96334473586563 L511.23528485967677 144.1807951374629" stroke="#688d77" stroke-width=".8" opacity=".48"/><path d="M511.23528485967677 144.1807951374629 L494.85206832996266 144.1807951374629" stroke="#688d77" stroke-width=".8" opacity=".48"/><path d="M494.85206832996266 144.1807951374629 L460.5691935069931 127.96334473586563" stroke="#688d77" stroke-width=".8" opacity=".48"/><path d="M460.5691935069931 127.96334473586563 L442.99341902409947 144.1807951374629" stroke="#688d77" stroke-width=".8" opacity=".48"/><path d="M442.99341902409947 144.1807951374629 L416.4848178339729 144.1807951374629" stroke="#688d77" stroke-width=".8" opacity=".48"/><path d="M416.4848178339729 144.1807951374629 L422.3294921650174 127.96334473586563" stroke="#688d77" stroke-width=".8" opacity=".48"/><path d="M422.3294921650174 127.96334473586563 L384.43440995228826 144.1807951374629" stroke="#688d77" stroke-width=".8" opacity=".48"/><path d="M384.43440995228826 144.1807951374629 L384.43440995228826 144.1807951374629" stroke="#688d77" stroke-width=".8" opacity=".48"/><path d="M384.43440995228826 144.1807951374629 L422.3294921650174 127.96334473586563" stroke="#688d77" stroke-width=".8" opacity=".48"/><path d="M422.3294921650174 127.96334473586563 L416.48481783397284 144.1807951374629" stroke="#688d77" stroke-width=".8" opacity=".48"/><path d="M416.48481783397284 144.1807951374629 L442.99341902409947 144.1807951374629" stroke="#688d77" stroke-width=".8" opacity=".48"/><path d="M442.99341902409947 144.1807951374629 L460.5691935069931 127.96334473586563" stroke="#688d77" stroke-width=".8" opacity=".48"/><path d="M460.5691935069931 127.96334473586563 L494.8520683299626 144.1807951374629" stroke="#688d77" stroke-width=".8" opacity=".48"/><path d="M494.8520683299626 144.1807951374629 L511.23528485967677 144.1807951374629" stroke="#688d77" stroke-width=".8" opacity=".48"/><path d="M511.23528485967677 144.1807951374629 L484.20262865597897 127.96334473586563" stroke="#688d77" stroke-width=".8" opacity=".48"/><path d="M511.23528485967677 144.1807951374629 L525.3593329770811 169.8414518925992" stroke="#688d77" stroke-width=".8" opacity=".48"/><path d="M525.3593329770811 169.8414518925992 L494.85206832996266 144.1807951374629" stroke="#688d77" stroke-width=".8" opacity=".48"/><path d="M494.85206832996266 144.1807951374629 L478.7847038277242 169.8414518925992" stroke="#688d77" stroke-width=".8" opacity=".48"/><path d="M478.7847038277242 169.8414518925992 L442.99341902409947 144.1807951374629" stroke="#688d77" stroke-width=".8" opacity=".48"/><path d="M442.99341902409947 144.1807951374629 L421.2152961722758 169.8414518925992" stroke="#688d77" stroke-width=".8" opacity=".48"/><path d="M421.2152961722758 169.8414518925992 L416.4848178339729 144.1807951374629" stroke="#688d77" stroke-width=".8" opacity=".48"/><path d="M416.4848178339729 144.1807951374629 L374.6406670229189 169.8414518925992" stroke="#688d77" stroke-width=".8" opacity=".48"/><path d="M374.6406670229189 169.8414518925992 L384.43440995228826 144.1807951374629" stroke="#688d77" stroke-width=".8" opacity=".48"/><path d="M384.43440995228826 144.1807951374629 L356.85074170128615 169.8414518925992" stroke="#688d77" stroke-width=".8" opacity=".48"/><path d="M356.85074170128615 169.8414518925992 L384.43440995228826 144.1807951374629" stroke="#688d77" stroke-width=".8" opacity=".48"/><path d="M384.43440995228826 144.1807951374629 L374.6406670229189 169.8414518925992" stroke="#688d77" stroke-width=".8" opacity=".48"/><path d="M374.6406670229189 169.8414518925992 L416.48481783397284 144.1807951374629" stroke="#688d77" stroke-width=".8" opacity=".48"/><path d="M416.48481783397284 144.1807951374629 L421.2152961722758 169.8414518925992" stroke="#688d77" stroke-width=".8" opacity=".48"/><path d="M421.2152961722758 169.8414518925992 L442.99341902409947 144.1807951374629" stroke="#688d77" stroke-width=".8" opacity=".48"/><path d="M442.99341902409947 144.1807951374629 L478.7847038277242 169.8414518925992" stroke="#688d77" stroke-width=".8" opacity=".48"/><path d="M478.7847038277242 169.8414518925992 L494.8520683299626 144.1807951374629" stroke="#688d77" stroke-width=".8" opacity=".48"/><path d="M494.8520683299626 144.1807951374629 L525.3593329770811 169.8414518925992" stroke="#688d77" stroke-width=".8" opacity=".48"/><path d="M525.3593329770811 169.8414518925992 L511.23528485967677 144.1807951374629" stroke="#688d77" stroke-width=".8" opacity=".48"/><path d="M511.23528485967677 144.1807951374629 L543.1492582987139 169.8414518925992" stroke="#688d77" stroke-width=".8" opacity=".48"/><path d="M543.1492582987139 169.8414518925992 L511.23528485967677 144.1807951374629" stroke="#688d77" stroke-width=".8" opacity=".48"/><path d="M525.3593329770811 169.8414518925992 L514.6241430734817 202.37702694189534" stroke="#688d77" stroke-width=".8" opacity=".48"/><path d="M514.6241430734817 202.37702694189534 L478.7847038277242 169.8414518925992" stroke="#688d77" stroke-width=".8" opacity=".48"/><path d="M478.7847038277242 169.8414518925992 L461.492398523294 202.37702694189534" stroke="#688d77" stroke-width=".8" opacity=".48"/><path d="M461.492398523294 202.37702694189534 L438.507601476706 202.37702694189534" stroke="#688d77" stroke-width=".8" opacity=".48"/><path d="M438.507601476706 202.37702694189534 L421.2152961722758 169.8414518925992" stroke="#688d77" stroke-width=".8" opacity=".48"/><path d="M421.2152961722758 169.8414518925992 L385.3758569265183 202.37702694189534" stroke="#688d77" stroke-width=".8" opacity=".48"/><path d="M385.3758569265183 202.37702694189534 L374.6406670229189 169.8414518925992" stroke="#688d77" stroke-width=".8" opacity=".48"/><path d="M374.6406670229189 169.8414518925992 L349.56009932442333 202.37702694189534" stroke="#688d77" stroke-width=".8" opacity=".48"/><path d="M349.56009932442333 202.37702694189534 L342.4574064247685 202.37702694189534" stroke="#688d77" stroke-width=".8" opacity=".48"/><path d="M342.4574064247685 202.37702694189534 L356.85074170128615 169.8414518925992" stroke="#688d77" stroke-width=".8" opacity=".48"/><path d="M356.85074170128615 169.8414518925992 L345.4359400132705 202.37702694189534" stroke="#688d77" stroke-width=".8" opacity=".48"/><path d="M345.4359400132705 202.37702694189534 L374.6406670229189 169.8414518925992" stroke="#688d77" stroke-width=".8" opacity=".48"/><path d="M374.6406670229189 169.8414518925992 L376.4323290325361 202.37702694189534" stroke="#688d77" stroke-width=".8" opacity=".48"/><path d="M376.4323290325361 202.37702694189534 L395.02742045548484 202.37702694189534" stroke="#688d77" stroke-width=".8" opacity=".48"/><path d="M395.02742045548484 202.37702694189534 L421.2152961722758 169.8414518925992" stroke="#688d77" stroke-width=".8" opacity=".48"/><path d="M421.2152961722758 169.8414518925992 L450 202.37702694189534" stroke="#688d77" stroke-width=".8" opacity=".48"/><path d="M450 202.37702694189534 L478.7847038277242 169.8414518925992" stroke="#688d77" stroke-width=".8" opacity=".48"/><path d="M478.7847038277242 169.8414518925992 L504.9725795445151 202.37702694189534" stroke="#688d77" stroke-width=".8" opacity=".48"/><path d="M504.9725795445151 202.37702694189534 L523.5676709674639 202.37702694189534" stroke="#688d77" stroke-width=".8" opacity=".48"/><path d="M523.5676709674639 202.37702694189534 L525.3593329770811 169.8414518925992" stroke="#688d77" stroke-width=".8" opacity=".48"/><path d="M525.3593329770811 169.8414518925992 L554.5640599867295 202.37702694189534" stroke="#688d77" stroke-width=".8" opacity=".48"/><path d="M554.5640599867295 202.37702694189534 L543.1492582987139 169.8414518925992" stroke="#688d77" stroke-width=".8" opacity=".48"/><path d="M543.1492582987139 169.8414518925992 L557.5425935752314 202.37702694189534" stroke="#688d77" stroke-width=".8" opacity=".48"/><path d="M557.5425935752314 202.37702694189534 L550.4399006755767 202.37702694189534" stroke="#688d77" stroke-width=".8" opacity=".48"/><path d="M550.4399006755767 202.37702694189534 L525.3593329770811 169.8414518925992" stroke="#688d77" stroke-width=".8" opacity=".48"/><path d="M514.6241430734817 202.37702694189534 L491.47643925597595 238.53114498282054" stroke="#688d77" stroke-width=".8" opacity=".48"/><path d="M491.47643925597595 238.53114498282054 L461.492398523294 202.37702694189534" stroke="#688d77" stroke-width=".8" opacity=".48"/><path d="M461.492398523294 202.37702694189534 L450 238.53114498282054" stroke="#688d77" stroke-width=".8" opacity=".48"/><path d="M450 238.53114498282054 L438.507601476706 202.37702694189534" stroke="#688d77" stroke-width=".8" opacity=".48"/><path d="M438.507601476706 202.37702694189534 L408.52356074402405 238.53114498282054" stroke="#688d77" stroke-width=".8" opacity=".48"/><path d="M408.52356074402405 238.53114498282054 L385.3758569265183 202.37702694189534" stroke="#688d77" stroke-width=".8" opacity=".48"/><path d="M385.3758569265183 202.37702694189534 L360.05544077171277 238.53114498282054" stroke="#688d77" stroke-width=".8" opacity=".48"/><path d="M360.05544077171277 238.53114498282054 L349.56009932442333 202.37702694189534" stroke="#688d77" stroke-width=".8" opacity=".48"/><path d="M349.56009932442333 202.37702694189534 L339.9275510626271 238.53114498282054" stroke="#688d77" stroke-width=".8" opacity=".48"/><path d="M339.9275510626271 238.53114498282054 L342.4574064247685 202.37702694189534" stroke="#688d77" stroke-width=".8" opacity=".48"/><path d="M342.4574064247685 202.37702694189534 L334.42159157919923 238.53114498282054" stroke="#688d77" stroke-width=".8" opacity=".48"/><path d="M334.42159157919923 238.53114498282054 L345.4359400132705 202.37702694189534" stroke="#688d77" stroke-width=".8" opacity=".48"/><path d="M345.4359400132705 202.37702694189534 L352.9347660378145 238.53114498282054" stroke="#688d77" stroke-width=".8" opacity=".48"/><path d="M352.9347660378145 238.53114498282054 L376.4323290325361 202.37702694189534" stroke="#688d77" stroke-width=".8" opacity=".48"/><path d="M376.4323290325361 202.37702694189534 L381.9714853317663 238.53114498282054" stroke="#688d77" stroke-width=".8" opacity=".48"/><path d="M381.9714853317663 238.53114498282054 L395.02742045548484 202.37702694189534" stroke="#688d77" stroke-width=".8" opacity=".48"/><path d="M395.02742045548484 202.37702694189534 L420.0450544863041 238.53114498282054" stroke="#688d77" stroke-width=".8" opacity=".48"/><path d="M420.0450544863041 238.53114498282054 L450 202.37702694189534" stroke="#688d77" stroke-width=".8" opacity=".48"/><path d="M450 202.37702694189534 L479.9549455136959 238.53114498282054" stroke="#688d77" stroke-width=".8" opacity=".48"/><path d="M479.9549455136959 238.53114498282054 L504.9725795445151 202.37702694189534" stroke="#688d77" stroke-width=".8" opacity=".48"/><path d="M504.9725795445151 202.37702694189534 L518.0285146682337 238.53114498282054" stroke="#688d77" stroke-width=".8" opacity=".48"/><path d="M518.0285146682337 238.53114498282054 L523.5676709674639 202.37702694189534" stroke="#688d77" stroke-width=".8" opacity=".48"/><path d="M523.5676709674639 202.37702694189534 L547.0652339621855 238.53114498282054" stroke="#688d77" stroke-width=".8" opacity=".48"/><path d="M547.0652339621855 238.53114498282054 L554.5640599867295 202.37702694189534" stroke="#688d77" stroke-width=".8" opacity=".48"/><path d="M554.5640599867295 202.37702694189534 L565.5784084208008 238.53114498282054" stroke="#688d77" stroke-width=".8" opacity=".48"/><path d="M565.5784084208008 238.53114498282054 L557.5425935752314 202.37702694189534" stroke="#688d77" stroke-width=".8" opacity=".48"/><path d="M557.5425935752314 202.37702694189534 L560.0724489373729 238.53114498282054" stroke="#688d77" stroke-width=".8" opacity=".48"/><path d="M560.0724489373729 238.53114498282054 L550.4399006755767 202.37702694189534" stroke="#688d77" stroke-width=".8" opacity=".48"/><path d="M550.4399006755767 202.37702694189534 L539.9445592282873 238.53114498282054" stroke="#688d77" stroke-width=".8" opacity=".48"/><path d="M539.9445592282873 238.53114498282054 L514.6241430734817 202.37702694189534" stroke="#688d77" stroke-width=".8" opacity=".48"/><path d="M491.47643925597595 238.53114498282054 L470.0359138419072 274.68526302374573" stroke="#688d77" stroke-width=".8" opacity=".48"/><path d="M470.0359138419072 274.68526302374573 L450 238.53114498282054" stroke="#688d77" stroke-width=".8" opacity=".48"/><path d="M450 238.53114498282054 L429.96408615809287 274.68526302374573" stroke="#688d77" stroke-width=".8" opacity=".48"/><path d="M429.96408615809287 274.68526302374573 L408.52356074402405 238.53114498282054" stroke="#688d77" stroke-width=".8" opacity=".48"/><path d="M408.52356074402405 238.53114498282054 L385.3758569265183 274.68526302374573" stroke="#688d77" stroke-width=".8" opacity=".48"/><path d="M385.3758569265183 274.68526302374573 L360.05544077171277 238.53114498282054" stroke="#688d77" stroke-width=".8" opacity=".48"/><path d="M360.05544077171277 238.53114498282054 L353.378312738218 274.68526302374573" stroke="#688d77" stroke-width=".8" opacity=".48"/><path d="M353.378312738218 274.68526302374573 L339.9275510626271 238.53114498282054" stroke="#688d77" stroke-width=".8" opacity=".48"/><path d="M339.9275510626271 238.53114498282054 L340.99543698825494 274.68526302374573" stroke="#688d77" stroke-width=".8" opacity=".48"/><path d="M340.99543698825494 274.68526302374573 L334.42159157919923 238.53114498282054" stroke="#688d77" stroke-width=".8" opacity=".48"/><path d="M334.42159157919923 238.53114498282054 L345.4359400132705 274.68526302374573" stroke="#688d77" stroke-width=".8" opacity=".48"/><path d="M345.4359400132705 274.68526302374573 L352.9347660378145 238.53114498282054" stroke="#688d77" stroke-width=".8" opacity=".48"/><path d="M352.9347660378145 238.53114498282054 L370.2485993799488 274.68526302374573" stroke="#688d77" stroke-width=".8" opacity=".48"/><path d="M370.2485993799488 274.68526302374573 L381.9714853317663 238.53114498282054" stroke="#688d77" stroke-width=".8" opacity=".48"/><path d="M381.9714853317663 238.53114498282054 L402.6673889718191 274.68526302374573" stroke="#688d77" stroke-width=".8" opacity=".48"/><path d="M402.6673889718191 274.68526302374573 L420.0450544863041 238.53114498282054" stroke="#688d77" stroke-width=".8" opacity=".48"/><path d="M420.0450544863041 238.53114498282054 L450 274.68526302374573" stroke="#688d77" stroke-width=".8" opacity=".48"/><path d="M450 274.68526302374573 L479.9549455136959 238.53114498282054" stroke="#688d77" stroke-width=".8" opacity=".48"/><path d="M479.9549455136959 238.53114498282054 L497.33261102818085 274.68526302374573" stroke="#688d77" stroke-width=".8" opacity=".48"/><path d="M497.33261102818085 274.68526302374573 L518.0285146682337 238.53114498282054" stroke="#688d77" stroke-width=".8" opacity=".48"/><path d="M518.0285146682337 238.53114498282054 L529.7514006200512 274.68526302374573" stroke="#688d77" stroke-width=".8" opacity=".48"/><path d="M529.7514006200512 274.68526302374573 L547.0652339621855 238.53114498282054" stroke="#688d77" stroke-width=".8" opacity=".48"/><path d="M547.0652339621855 238.53114498282054 L554.5640599867295 274.68526302374573" stroke="#688d77" stroke-width=".8" opacity=".48"/><path d="M554.5640599867295 274.68526302374573 L565.5784084208008 238.53114498282054" stroke="#688d77" stroke-width=".8" opacity=".48"/><path d="M565.5784084208008 238.53114498282054 L559.0045630117451 274.68526302374573" stroke="#688d77" stroke-width=".8" opacity=".48"/><path d="M559.0045630117451 274.68526302374573 L560.0724489373729 238.53114498282054" stroke="#688d77" stroke-width=".8" opacity=".48"/><path d="M560.0724489373729 238.53114498282054 L546.621687261782 274.68526302374573" stroke="#688d77" stroke-width=".8" opacity=".48"/><path d="M546.621687261782 274.68526302374573 L539.9445592282873 238.53114498282054" stroke="#688d77" stroke-width=".8" opacity=".48"/><path d="M539.9445592282873 238.53114498282054 L514.6241430734817 274.68526302374573" stroke="#688d77" stroke-width=".8" opacity=".48"/><path d="M514.6241430734817 274.68526302374573 L491.47643925597595 238.53114498282054" stroke="#688d77" stroke-width=".8" opacity=".48"/><path d="M470.0359138419072 274.68526302374573 L450 307.2208380730418" stroke="#688d77" stroke-width=".8" opacity=".48"/><path d="M450 307.2208380730418 L429.96408615809287 274.68526302374573" stroke="#688d77" stroke-width=".8" opacity=".48"/><path d="M429.96408615809287 274.68526302374573 L413.2299025598315 307.2208380730418" stroke="#688d77" stroke-width=".8" opacity=".48"/><path d="M413.2299025598315 307.2208380730418 L385.3758569265183 274.68526302374573" stroke="#688d77" stroke-width=".8" opacity=".48"/><path d="M385.3758569265183 274.68526302374573 L379.9666795738854 307.2208380730418" stroke="#688d77" stroke-width=".8" opacity=".48"/><path d="M379.9666795738854 307.2208380730418 L353.378312738218 274.68526302374573" stroke="#688d77" stroke-width=".8" opacity=".48"/><path d="M353.378312738218 274.68526302374573 L361.40979090694776 307.2208380730418" stroke="#688d77" stroke-width=".8" opacity=".48"/><path d="M361.40979090694776 307.2208380730418 L340.99543698825494 274.68526302374573" stroke="#688d77" stroke-width=".8" opacity=".48"/><path d="M340.99543698825494 274.68526302374573 L357.2415095862157 307.2208380730418" stroke="#688d77" stroke-width=".8" opacity=".48"/><path d="M357.2415095862157 307.2208380730418 L345.4359400132705 274.68526302374573" stroke="#688d77" stroke-width=".8" opacity=".48"/><path d="M345.4359400132705 274.68526302374573 L369.94693019148036 307.2208380730418" stroke="#688d77" stroke-width=".8" opacity=".48"/><path d="M369.94693019148036 307.2208380730418 L370.2485993799488 274.68526302374573" stroke="#688d77" stroke-width=".8" opacity=".48"/><path d="M370.2485993799488 274.68526302374573 L395.2482397100337 307.2208380730418" stroke="#688d77" stroke-width=".8" opacity=".48"/><path d="M395.2482397100337 307.2208380730418 L402.6673889718191 274.68526302374573" stroke="#688d77" stroke-width=".8" opacity=".48"/><path d="M402.6673889718191 274.68526302374573 L429.4421976193186 307.2208380730418" stroke="#688d77" stroke-width=".8" opacity=".48"/><path d="M429.4421976193186 307.2208380730418 L450 274.68526302374573" stroke="#688d77" stroke-width=".8" opacity=".48"/><path d="M450 274.68526302374573 L470.5578023806814 307.2208380730418" stroke="#688d77" stroke-width=".8" opacity=".48"/><path d="M470.5578023806814 307.2208380730418 L497.33261102818085 274.68526302374573" stroke="#688d77" stroke-width=".8" opacity=".48"/><path d="M497.33261102818085 274.68526302374573 L504.7517602899663 307.2208380730418" stroke="#688d77" stroke-width=".8" opacity=".48"/><path d="M504.7517602899663 307.2208380730418 L529.7514006200512 274.68526302374573" stroke="#688d77" stroke-width=".8" opacity=".48"/><path d="M529.7514006200512 274.68526302374573 L530.0530698085197 307.2208380730418" stroke="#688d77" stroke-width=".8" opacity=".48"/><path d="M530.0530698085197 307.2208380730418 L554.5640599867295 274.68526302374573" stroke="#688d77" stroke-width=".8" opacity=".48"/><path d="M554.5640599867295 274.68526302374573 L542.7584904137842 307.2208380730418" stroke="#688d77" stroke-width=".8" opacity=".48"/><path d="M542.7584904137842 307.2208380730418 L559.0045630117451 274.68526302374573" stroke="#688d77" stroke-width=".8" opacity=".48"/><path d="M559.0045630117451 274.68526302374573 L538.5902090930523 307.2208380730418" stroke="#688d77" stroke-width=".8" opacity=".48"/><path d="M538.5902090930523 307.2208380730418 L546.621687261782 274.68526302374573" stroke="#688d77" stroke-width=".8" opacity=".48"/><path d="M546.621687261782 274.68526302374573 L520.0333204261146 307.2208380730418" stroke="#688d77" stroke-width=".8" opacity=".48"/><path d="M520.0333204261146 307.2208380730418 L514.6241430734817 274.68526302374573" stroke="#688d77" stroke-width=".8" opacity=".48"/><path d="M514.6241430734817 274.68526302374573 L486.77009744016857 307.2208380730418" stroke="#688d77" stroke-width=".8" opacity=".48"/><path d="M486.77009744016857 307.2208380730418 L470.0359138419072 274.68526302374573" stroke="#688d77" stroke-width=".8" opacity=".48"/><path d="M450 307.2208380730418 L436.49302482966584 332.8814948281782" stroke="#688d77" stroke-width=".8" opacity=".48"/><path d="M436.49302482966584 332.8814948281782 L413.2299025598315 307.2208380730418" stroke="#688d77" stroke-width=".8" opacity=".48"/><path d="M413.2299025598315 307.2208380730418 L400.4813525190099 332.8814948281782" stroke="#688d77" stroke-width=".8" opacity=".48"/><path d="M400.4813525190099 332.8814948281782 L379.9666795738854 307.2208380730418" stroke="#688d77" stroke-width=".8" opacity=".48"/><path d="M379.9666795738854 307.2208380730418 L361.40979090694776 307.2208380730418" stroke="#688d77" stroke-width=".8" opacity=".48"/><path d="M361.40979090694776 307.2208380730418 L383.3841204691678 332.8814948281782" stroke="#688d77" stroke-width=".8" opacity=".48"/><path d="M383.3841204691678 332.8814948281782 L357.2415095862157 307.2208380730418" stroke="#688d77" stroke-width=".8" opacity=".48"/><path d="M357.2415095862157 307.2208380730418 L391.7318902096352 332.8814948281782" stroke="#688d77" stroke-width=".8" opacity=".48"/><path d="M391.7318902096352 332.8814948281782 L369.94693019148036 307.2208380730418" stroke="#688d77" stroke-width=".8" opacity=".48"/><path d="M369.94693019148036 307.2208380730418 L395.2482397100337 307.2208380730418" stroke="#688d77" stroke-width=".8" opacity=".48"/><path d="M395.2482397100337 307.2208380730418 L422.33609742981145 332.8814948281782" stroke="#688d77" stroke-width=".8" opacity=".48"/><path d="M422.33609742981145 332.8814948281782 L429.4421976193186 307.2208380730418" stroke="#688d77" stroke-width=".8" opacity=".48"/><path d="M429.4421976193186 307.2208380730418 L463.50697517033416 332.8814948281782" stroke="#688d77" stroke-width=".8" opacity=".48"/><path d="M463.50697517033416 332.8814948281782 L470.5578023806814 307.2208380730418" stroke="#688d77" stroke-width=".8" opacity=".48"/><path d="M470.5578023806814 307.2208380730418 L504.7517602899663 307.2208380730418" stroke="#688d77" stroke-width=".8" opacity=".48"/><path d="M504.7517602899663 307.2208380730418 L499.5186474809901 332.8814948281782" stroke="#688d77" stroke-width=".8" opacity=".48"/><path d="M499.5186474809901 332.8814948281782 L530.0530698085197 307.2208380730418" stroke="#688d77" stroke-width=".8" opacity=".48"/><path d="M530.0530698085197 307.2208380730418 L516.6158795308322 332.8814948281782" stroke="#688d77" stroke-width=".8" opacity=".48"/><path d="M516.6158795308322 332.8814948281782 L542.7584904137842 307.2208380730418" stroke="#688d77" stroke-width=".8" opacity=".48"/><path d="M542.7584904137842 307.2208380730418 L538.5902090930523 307.2208380730418" stroke="#688d77" stroke-width=".8" opacity=".48"/><path d="M538.5902090930523 307.2208380730418 L508.2681097903648 332.8814948281782" stroke="#688d77" stroke-width=".8" opacity=".48"/><path d="M508.2681097903648 332.8814948281782 L520.0333204261146 307.2208380730418" stroke="#688d77" stroke-width=".8" opacity=".48"/><path d="M520.0333204261146 307.2208380730418 L477.66390257018855 332.8814948281782" stroke="#688d77" stroke-width=".8" opacity=".48"/><path d="M477.66390257018855 332.8814948281782 L486.77009744016857 307.2208380730418" stroke="#688d77" stroke-width=".8" opacity=".48"/><path d="M486.77009744016857 307.2208380730418 L450 307.2208380730418" stroke="#688d77" stroke-width=".8" opacity=".48"/><path d="M436.49302482966584 332.8814948281782 L424.7328255154848 349.0989452297754" stroke="#688d77" stroke-width=".8" opacity=".48"/><path d="M424.7328255154848 349.0989452297754 L400.4813525190099 332.8814948281782" stroke="#688d77" stroke-width=".8" opacity=".48"/><path d="M400.4813525190099 332.8814948281782 L383.3841204691678 332.8814948281782" stroke="#688d77" stroke-width=".8" opacity=".48"/><path d="M383.3841204691678 332.8814948281782 L420.26836208478375 349.0989452297754" stroke="#688d77" stroke-width=".8" opacity=".48"/><path d="M420.26836208478375 349.0989452297754 L391.7318902096352 332.8814948281782" stroke="#688d77" stroke-width=".8" opacity=".48"/><path d="M391.7318902096352 332.8814948281782 L422.33609742981145 332.8814948281782" stroke="#688d77" stroke-width=".8" opacity=".48"/><path d="M422.33609742981145 332.8814948281782 L456.89201171170646 349.0989452297754" stroke="#688d77" stroke-width=".8" opacity=".48"/><path d="M456.89201171170646 349.0989452297754 L463.50697517033416 332.8814948281782" stroke="#688d77" stroke-width=".8" opacity=".48"/><path d="M463.50697517033416 332.8814948281782 L499.5186474809901 332.8814948281782" stroke="#688d77" stroke-width=".8" opacity=".48"/><path d="M499.5186474809901 332.8814948281782 L483.9911354039132 349.0989452297754" stroke="#688d77" stroke-width=".8" opacity=".48"/><path d="M483.9911354039132 349.0989452297754 L516.6158795308322 332.8814948281782" stroke="#688d77" stroke-width=".8" opacity=".48"/><path d="M516.6158795308322 332.8814948281782 L508.2681097903648 332.8814948281782" stroke="#688d77" stroke-width=".8" opacity=".48"/><path d="M508.2681097903648 332.8814948281782 L464.1156652841118 349.0989452297754" stroke="#688d77" stroke-width=".8" opacity=".48"/><path d="M464.1156652841118 349.0989452297754 L477.66390257018855 332.8814948281782" stroke="#688d77" stroke-width=".8" opacity=".48"/><path d="M477.66390257018855 332.8814948281782 L436.49302482966584 332.8814948281782" stroke="#688d77" stroke-width=".8" opacity=".48"/><path d="M424.7328255154848 349.0989452297754 L420.26836208478375 349.0989452297754" stroke="#688d77" stroke-width=".8" opacity=".48"/><path d="M420.26836208478375 349.0989452297754 L456.89201171170646 349.0989452297754" stroke="#688d77" stroke-width=".8" opacity=".48"/><path d="M456.89201171170646 349.0989452297754 L483.9911354039132 349.0989452297754" stroke="#688d77" stroke-width=".8" opacity=".48"/><path d="M483.9911354039132 349.0989452297754 L464.1156652841118 349.0989452297754" stroke="#688d77" stroke-width=".8" opacity=".48"/><path d="M464.1156652841118 349.0989452297754 L424.7328255154848 349.0989452297754" stroke="#688d77" stroke-width=".8" opacity=".48"/><path d="M408.52356074402405 238.53114498282054 L385.3758569265183 202.37702694189534" stroke="#688d77" stroke-width=".8" opacity=".48"/><path d="M461.492398523294 202.37702694189534 L514.6241430734817 202.37702694189534" stroke="#688d77" stroke-width=".8" opacity=".48"/><path d="M400.4813525190099 332.8814948281782 L341.6747336294692 338.3543899865349" stroke="#688d77" stroke-width=".8" opacity=".48"/><path d="M341.6747336294692 338.3543899865349 L331.0610227498693 359.58181174573474" stroke="#688d77" stroke-width=".8" opacity=".48"/><path d="M331.0610227498693 359.58181174573474 L320.44731187026935 380.8092335049345" stroke="#688d77" stroke-width=".8" opacity=".48"/><path d="M320.44731187026935 380.8092335049345 L309.8336009906695 402.03665526413437" stroke="#688d77" stroke-width=".8" opacity=".48"/><path d="M361.40979090694776 307.2208380730418 L317.754393714112 307.88675341537845" stroke="#688d77" stroke-width=".8" opacity=".48"/><path d="M317.754393714112 307.88675341537845 L301.9082278453782 330.5241332278553" stroke="#688d77" stroke-width=".8" opacity=".48"/><path d="M301.9082278453782 330.5241332278553 L286.0620619766444 353.16151304033224" stroke="#688d77" stroke-width=".8" opacity=".48"/><path d="M516.6158795308322 332.8814948281782 L558.3252663705308 338.3543899865349" stroke="#688d77" stroke-width=".8" opacity=".48"/><path d="M558.3252663705308 338.3543899865349 L568.9389772501307 359.58181174573474" stroke="#688d77" stroke-width=".8" opacity=".48"/><path d="M568.9389772501307 359.58181174573474 L579.5526881297307 380.8092335049345" stroke="#688d77" stroke-width=".8" opacity=".48"/><path d="M579.5526881297307 380.8092335049345 L590.1663990093305 402.03665526413437" stroke="#688d77" stroke-width=".8" opacity=".48"/><path d="M542.7584904137842 307.2208380730418 L582.245606285888 307.88675341537845" stroke="#688d77" stroke-width=".8" opacity=".48"/><path d="M582.245606285888 307.88675341537845 L598.0917721546218 330.5241332278553" stroke="#688d77" stroke-width=".8" opacity=".48"/><path d="M598.0917721546218 330.5241332278553 L613.9379380233556 353.16151304033224" stroke="#688d77" stroke-width=".8" opacity=".48"/><g data-pbead="B0050" opacity="1"><title>B0050 · head and body</title><circle cx="479.9549455136959" cy="238.53114498282054" r="18.293916378597142" fill="#a9c8a0" stroke="#37543d80" stroke-width=".65"/><circle cx="479.9549455136959" cy="238.53114498282054" r="18.293916378597142" fill="url(#parts-shine)"/><ellipse cx="479.9549455136959" cy="238.53114498282054" rx="4.390539930863314" ry="2.195269965431657" fill="#29463270"/></g><g data-pbead="B0049" opacity="1"><title>B0049 · head and body</title><circle cx="420.0450544863041" cy="238.53114498282054" r="18.293916378597142" fill="#a9c8a0" stroke="#37543d80" stroke-width=".65"/><circle cx="420.0450544863041" cy="238.53114498282054" r="18.293916378597142" fill="url(#parts-shine)"/><ellipse cx="420.0450544863041" cy="238.53114498282054" rx="4.390539930863314" ry="2.195269965431657" fill="#29463270"/></g><g data-pbead="B0035" opacity="1"><title>B0035 · head and body</title><circle cx="450" cy="202.37702694189534" r="18.293916378597142" fill="#a9c8a0" stroke="#37543d80" stroke-width=".65"/><circle cx="450" cy="202.37702694189534" r="18.293916378597142" fill="url(#parts-shine)"/><ellipse cx="450" cy="202.37702694189534" rx="4.390539930863314" ry="2.195269965431657" fill="#29463270"/></g><g data-pbead="B0064" opacity="1"><title>B0064 · head and body</title><circle cx="450" cy="274.68526302374573" r="18.293916378597142" fill="#a9c8a0" stroke="#37543d80" stroke-width=".65"/><circle cx="450" cy="274.68526302374573" r="18.293916378597142" fill="url(#parts-shine)"/><ellipse cx="450" cy="274.68526302374573" rx="4.390539930863314" ry="2.195269965431657" fill="#29463270"/></g><g data-pbead="B0063" opacity="1"><title>B0063 · head and body</title><circle cx="402.6673889718191" cy="274.68526302374573" r="18.293916378597142" fill="#a9c8a0" stroke="#37543d80" stroke-width=".65"/><circle cx="402.6673889718191" cy="274.68526302374573" r="18.293916378597142" fill="url(#parts-shine)"/><ellipse cx="402.6673889718191" cy="274.68526302374573" rx="4.390539930863314" ry="2.195269965431657" fill="#29463270"/></g><g data-pbead="B0065" opacity="1"><title>B0065 · head and body</title><circle cx="497.33261102818085" cy="274.68526302374573" r="18.293916378597142" fill="#a9c8a0" stroke="#37543d80" stroke-width=".65"/><circle cx="497.33261102818085" cy="274.68526302374573" r="18.293916378597142" fill="url(#parts-shine)"/><ellipse cx="497.33261102818085" cy="274.68526302374573" rx="4.390539930863314" ry="2.195269965431657" fill="#29463270"/></g><g data-pbead="B0036" opacity="1"><title>B0036 · head and body</title><circle cx="504.9725795445151" cy="202.37702694189534" r="18.293916378597142" fill="#a9c8a0" stroke="#37543d80" stroke-width=".65"/><circle cx="504.9725795445151" cy="202.37702694189534" r="18.293916378597142" fill="url(#parts-shine)"/><ellipse cx="504.9725795445151" cy="202.37702694189534" rx="4.390539930863314" ry="2.195269965431657" fill="#29463270"/></g><g data-pbead="B0034" opacity="1"><title>B0034 · head and body</title><circle cx="395.02742045548484" cy="202.37702694189534" r="18.293916378597142" fill="#a9c8a0" stroke="#37543d80" stroke-width=".65"/><circle cx="395.02742045548484" cy="202.37702694189534" r="18.293916378597142" fill="url(#parts-shine)"/><ellipse cx="395.02742045548484" cy="202.37702694189534" rx="4.390539930863314" ry="2.195269965431657" fill="#29463270"/></g><g data-pbead="B0051" opacity="1"><title>B0051 · head and body</title><circle cx="518.0285146682337" cy="238.53114498282054" r="18.293916378597142" fill="#a9c8a0" stroke="#37543d80" stroke-width=".65"/><circle cx="518.0285146682337" cy="238.53114498282054" r="18.293916378597142" fill="url(#parts-shine)"/><ellipse cx="518.0285146682337" cy="238.53114498282054" rx="4.390539930863314" ry="2.195269965431657" fill="#29463270"/></g><g data-pbead="B0048" opacity="1"><title>B0048 · head and body</title><circle cx="381.9714853317663" cy="238.53114498282054" r="18.293916378597142" fill="#a9c8a0" stroke="#37543d80" stroke-width=".65"/><circle cx="381.9714853317663" cy="238.53114498282054" r="18.293916378597142" fill="url(#parts-shine)"/><ellipse cx="381.9714853317663" cy="238.53114498282054" rx="4.390539930863314" ry="2.195269965431657" fill="#29463270"/></g><g data-pbead="B0079" opacity="1"><title>B0079 · head and body</title><circle cx="470.5578023806814" cy="307.2208380730418" r="18.293916378597142" fill="#a9c8a0" stroke="#37543d80" stroke-width=".65"/><circle cx="470.5578023806814" cy="307.2208380730418" r="18.293916378597142" fill="url(#parts-shine)"/><ellipse cx="470.5578023806814" cy="307.2208380730418" rx="4.390539930863314" ry="2.195269965431657" fill="#29463270"/></g><g data-pbead="B0078" opacity="1"><title>B0078 · head and body</title><circle cx="429.4421976193186" cy="307.2208380730418" r="18.293916378597142" fill="#a9c8a0" stroke="#37543d80" stroke-width=".65"/><circle cx="429.4421976193186" cy="307.2208380730418" r="18.293916378597142" fill="url(#parts-shine)"/><ellipse cx="429.4421976193186" cy="307.2208380730418" rx="4.390539930863314" ry="2.195269965431657" fill="#29463270"/></g><g data-pbead="B0023" opacity="1"><title>B0023 · head and body</title><circle cx="478.7847038277242" cy="169.8414518925992" r="18.293916378597142" fill="#a9c8a0" stroke="#37543d80" stroke-width=".65"/><circle cx="478.7847038277242" cy="169.8414518925992" r="18.293916378597142" fill="url(#parts-shine)"/><ellipse cx="478.7847038277242" cy="169.8414518925992" rx="4.390539930863314" ry="2.195269965431657" fill="#29463270"/></g><g data-pbead="B0022" opacity="1"><title>B0022 · head and body</title><circle cx="421.2152961722758" cy="169.8414518925992" r="18.293916378597142" fill="#a9c8a0" stroke="#37543d80" stroke-width=".65"/><circle cx="421.2152961722758" cy="169.8414518925992" r="18.293916378597142" fill="url(#parts-shine)"/><ellipse cx="421.2152961722758" cy="169.8414518925992" rx="4.390539930863314" ry="2.195269965431657" fill="#29463270"/></g><g data-pbead="B0037" opacity="1"><title>B0037 · head and body</title><circle cx="523.5676709674639" cy="202.37702694189534" r="18.293916378597142" fill="#a9c8a0" stroke="#37543d80" stroke-width=".65"/><circle cx="523.5676709674639" cy="202.37702694189534" r="18.293916378597142" fill="url(#parts-shine)"/><ellipse cx="523.5676709674639" cy="202.37702694189534" rx="4.390539930863314" ry="2.195269965431657" fill="#29463270"/></g><g data-pbead="B0033" opacity="1"><title>B0033 · head and body</title><circle cx="376.4323290325361" cy="202.37702694189534" r="18.293916378597142" fill="#a9c8a0" stroke="#37543d80" stroke-width=".65"/><circle cx="376.4323290325361" cy="202.37702694189534" r="18.293916378597142" fill="url(#parts-shine)"/><ellipse cx="376.4323290325361" cy="202.37702694189534" rx="4.390539930863314" ry="2.195269965431657" fill="#29463270"/></g><g data-pbead="B0066" opacity="1"><title>B0066 · head and body</title><circle cx="529.7514006200512" cy="274.68526302374573" r="18.293916378597142" fill="#a9c8a0" stroke="#37543d80" stroke-width=".65"/><circle cx="529.7514006200512" cy="274.68526302374573" r="18.293916378597142" fill="url(#parts-shine)"/><ellipse cx="529.7514006200512" cy="274.68526302374573" rx="4.390539930863314" ry="2.195269965431657" fill="#29463270"/></g><g data-pbead="B0062" opacity="1"><title>B0062 · head and body</title><circle cx="370.2485993799488" cy="274.68526302374573" r="18.293916378597142" fill="#a9c8a0" stroke="#37543d80" stroke-width=".65"/><circle cx="370.2485993799488" cy="274.68526302374573" r="18.293916378597142" fill="url(#parts-shine)"/><ellipse cx="370.2485993799488" cy="274.68526302374573" rx="4.390539930863314" ry="2.195269965431657" fill="#29463270"/></g><g data-pbead="B0080" opacity="1"><title>B0080 · head and body</title><circle cx="504.7517602899663" cy="307.2208380730418" r="18.293916378597142" fill="#a9c8a0" stroke="#37543d80" stroke-width=".65"/><circle cx="504.7517602899663" cy="307.2208380730418" r="18.293916378597142" fill="url(#parts-shine)"/><ellipse cx="504.7517602899663" cy="307.2208380730418" rx="4.390539930863314" ry="2.195269965431657" fill="#29463270"/></g><g data-pbead="B0077" opacity="1"><title>B0077 · head and body</title><circle cx="395.2482397100337" cy="307.2208380730418" r="18.293916378597142" fill="#a9c8a0" stroke="#37543d80" stroke-width=".65"/><circle cx="395.2482397100337" cy="307.2208380730418" r="18.293916378597142" fill="url(#parts-shine)"/><ellipse cx="395.2482397100337" cy="307.2208380730418" rx="4.390539930863314" ry="2.195269965431657" fill="#29463270"/></g><g data-pbead="B0013" opacity="1"><title>B0013 · head and body</title><circle cx="442.99341902409947" cy="144.1807951374629" r="18.293916378597142" fill="#a9c8a0" stroke="#37543d80" stroke-width=".65"/><circle cx="442.99341902409947" cy="144.1807951374629" r="18.293916378597142" fill="url(#parts-shine)"/><ellipse cx="442.99341902409947" cy="144.1807951374629" rx="4.390539930863314" ry="2.195269965431657" fill="#29463270"/></g><g data-pbead="B0091" opacity="1"><title>B0091 · head and body</title><circle cx="463.50697517033416" cy="332.8814948281782" r="18.293916378597142" fill="#a9c8a0" stroke="#37543d80" stroke-width=".65"/><circle cx="463.50697517033416" cy="332.8814948281782" r="18.293916378597142" fill="url(#parts-shine)"/><ellipse cx="463.50697517033416" cy="332.8814948281782" rx="4.390539930863314" ry="2.195269965431657" fill="#29463270"/></g><g data-pbead="B0052" opacity="1"><title>B0052 · head and body</title><circle cx="547.0652339621855" cy="238.53114498282054" r="18.293916378597142" fill="#a9c8a0" stroke="#37543d80" stroke-width=".65"/><circle cx="547.0652339621855" cy="238.53114498282054" r="18.293916378597142" fill="url(#parts-shine)"/><ellipse cx="547.0652339621855" cy="238.53114498282054" rx="4.390539930863314" ry="2.195269965431657" fill="#29463270"/></g><g data-pbead="B0047" opacity="1"><title>B0047 · head and body</title><circle cx="352.9347660378145" cy="238.53114498282054" r="18.293916378597142" fill="#a9c8a0" stroke="#37543d80" stroke-width=".65"/><circle cx="352.9347660378145" cy="238.53114498282054" r="18.293916378597142" fill="url(#parts-shine)"/><ellipse cx="352.9347660378145" cy="238.53114498282054" rx="4.390539930863314" ry="2.195269965431657" fill="#29463270"/></g><g data-pbead="B0090" opacity="1"><title>B0090 · head and body</title><circle cx="422.33609742981145" cy="332.8814948281782" r="18.293916378597142" fill="#a9c8a0" stroke="#37543d80" stroke-width=".65"/><circle cx="422.33609742981145" cy="332.8814948281782" r="18.293916378597142" fill="url(#parts-shine)"/><ellipse cx="422.33609742981145" cy="332.8814948281782" rx="4.390539930863314" ry="2.195269965431657" fill="#29463270"/></g><g data-pbead="B0012" opacity="1"><title>B0012 · head and body</title><circle cx="416.48481783397284" cy="144.1807951374629" r="18.293916378597142" fill="#a9c8a0" stroke="#37543d80" stroke-width=".65"/><circle cx="416.48481783397284" cy="144.1807951374629" r="18.293916378597142" fill="url(#parts-shine)"/><ellipse cx="416.48481783397284" cy="144.1807951374629" rx="4.390539930863314" ry="2.195269965431657" fill="#29463270"/></g><g data-pbead="B0024" opacity="1"><title>B0024 · head and body</title><circle cx="525.3593329770811" cy="169.8414518925992" r="18.293916378597142" fill="#a9c8a0" stroke="#37543d80" stroke-width=".65"/><circle cx="525.3593329770811" cy="169.8414518925992" r="18.293916378597142" fill="url(#parts-shine)"/><ellipse cx="525.3593329770811" cy="169.8414518925992" rx="4.390539930863314" ry="2.195269965431657" fill="#29463270"/></g><g data-pbead="B0021" opacity="1"><title>B0021 · head and body</title><circle cx="374.6406670229189" cy="169.8414518925992" r="18.293916378597142" fill="#a9c8a0" stroke="#37543d80" stroke-width=".65"/><circle cx="374.6406670229189" cy="169.8414518925992" r="18.293916378597142" fill="url(#parts-shine)"/><ellipse cx="374.6406670229189" cy="169.8414518925992" rx="4.390539930863314" ry="2.195269965431657" fill="#29463270"/></g><g data-pbead="B0014" opacity="1"><title>B0014 · head and body</title><circle cx="494.8520683299626" cy="144.1807951374629" r="18.293916378597142" fill="#a9c8a0" stroke="#37543d80" stroke-width=".65"/><circle cx="494.8520683299626" cy="144.1807951374629" r="18.293916378597142" fill="url(#parts-shine)"/><ellipse cx="494.8520683299626" cy="144.1807951374629" rx="4.390539930863314" ry="2.195269965431657" fill="#29463270"/></g><g data-pbead="B0076" opacity="1"><title>B0076 · head and body</title><circle cx="369.94693019148036" cy="307.2208380730418" r="18.293916378597142" fill="#a9c8a0" stroke="#37543d80" stroke-width=".65"/><circle cx="369.94693019148036" cy="307.2208380730418" r="18.293916378597142" fill="url(#parts-shine)"/><ellipse cx="369.94693019148036" cy="307.2208380730418" rx="4.390539930863314" ry="2.195269965431657" fill="#29463270"/></g><g data-pbead="B0081" opacity="1"><title>B0081 · head and body</title><circle cx="530.0530698085197" cy="307.2208380730418" r="18.293916378597142" fill="#a9c8a0" stroke="#37543d80" stroke-width=".65"/><circle cx="530.0530698085197" cy="307.2208380730418" r="18.293916378597142" fill="url(#parts-shine)"/><ellipse cx="530.0530698085197" cy="307.2208380730418" rx="4.390539930863314" ry="2.195269965431657" fill="#29463270"/></g><g data-pbead="B0092" opacity="1"><title>B0092 · head and body</title><circle cx="499.5186474809901" cy="332.8814948281782" r="18.293916378597142" fill="#a9c8a0" stroke="#37543d80" stroke-width=".65"/><circle cx="499.5186474809901" cy="332.8814948281782" r="18.293916378597142" fill="url(#parts-shine)"/><ellipse cx="499.5186474809901" cy="332.8814948281782" rx="4.390539930863314" ry="2.195269965431657" fill="#29463270"/></g><g data-pbead="B0038" opacity="1"><title>B0038 · head and body</title><circle cx="554.5640599867295" cy="202.37702694189534" r="18.293916378597142" fill="#a9c8a0" stroke="#37543d80" stroke-width=".65"/><circle cx="554.5640599867295" cy="202.37702694189534" r="18.293916378597142" fill="url(#parts-shine)"/><ellipse cx="554.5640599867295" cy="202.37702694189534" rx="4.390539930863314" ry="2.195269965431657" fill="#29463270"/></g><g data-pbead="B0067" opacity="1"><title>B0067 · head and body</title><circle cx="554.5640599867295" cy="274.68526302374573" r="18.293916378597142" fill="#a9c8a0" stroke="#37543d80" stroke-width=".65"/><circle cx="554.5640599867295" cy="274.68526302374573" r="18.293916378597142" fill="url(#parts-shine)"/><ellipse cx="554.5640599867295" cy="274.68526302374573" rx="4.390539930863314" ry="2.195269965431657" fill="#29463270"/></g><g data-pbead="B0032" opacity="1"><title>B0032 · head and body</title><circle cx="345.4359400132705" cy="202.37702694189534" r="18.293916378597142" fill="#a9c8a0" stroke="#37543d80" stroke-width=".65"/><circle cx="345.4359400132705" cy="202.37702694189534" r="18.293916378597142" fill="url(#parts-shine)"/><ellipse cx="345.4359400132705" cy="202.37702694189534" rx="4.390539930863314" ry="2.195269965431657" fill="#29463270"/></g><g data-pbead="B0061" opacity="1"><title>B0061 · head and body</title><circle cx="345.4359400132705" cy="274.68526302374573" r="18.293916378597142" fill="#a9c8a0" stroke="#37543d80" stroke-width=".65"/><circle cx="345.4359400132705" cy="274.68526302374573" r="18.293916378597142" fill="url(#parts-shine)"/><ellipse cx="345.4359400132705" cy="274.68526302374573" rx="4.390539930863314" ry="2.195269965431657" fill="#29463270"/></g><g data-pbead="B0098" opacity="1"><title>B0098 · head and body</title><circle cx="456.89201171170646" cy="349.0989452297754" r="18.293916378597142" fill="#a9c8a0" stroke="#37543d80" stroke-width=".65"/><circle cx="456.89201171170646" cy="349.0989452297754" r="18.293916378597142" fill="url(#parts-shine)"/><ellipse cx="456.89201171170646" cy="349.0989452297754" rx="4.390539930863314" ry="2.195269965431657" fill="#29463270"/></g><g data-pbead="B0089" opacity="1"><title>B0089 · head and body</title><circle cx="391.7318902096352" cy="332.8814948281782" r="18.293916378597142" fill="#a9c8a0" stroke="#37543d80" stroke-width=".65"/><circle cx="391.7318902096352" cy="332.8814948281782" r="18.293916378597142" fill="url(#parts-shine)"/><ellipse cx="391.7318902096352" cy="332.8814948281782" rx="4.390539930863314" ry="2.195269965431657" fill="#29463270"/></g><g data-pbead="B0005" opacity="1"><title>B0005 · head and body</title><circle cx="460.5691935069931" cy="127.96334473586563" r="18.293916378597142" fill="#a9c8a0" stroke="#37543d80" stroke-width=".65"/><circle cx="460.5691935069931" cy="127.96334473586563" r="18.293916378597142" fill="url(#parts-shine)"/><ellipse cx="460.5691935069931" cy="127.96334473586563" rx="4.390539930863314" ry="2.195269965431657" fill="#29463270"/></g><g data-pbead="B0015" opacity="1"><title>B0015 · head and body</title><circle cx="511.23528485967677" cy="144.1807951374629" r="18.293916378597142" fill="#a9c8a0" stroke="#37543d80" stroke-width=".65"/><circle cx="511.23528485967677" cy="144.1807951374629" r="18.293916378597142" fill="url(#parts-shine)"/><ellipse cx="511.23528485967677" cy="144.1807951374629" rx="4.390539930863314" ry="2.195269965431657" fill="#29463270"/></g><g data-pbead="B0004" opacity="1"><title>B0004 · head and body</title><circle cx="422.3294921650174" cy="127.96334473586563" r="18.293916378597142" fill="#a9c8a0" stroke="#37543d80" stroke-width=".65"/><circle cx="422.3294921650174" cy="127.96334473586563" r="18.293916378597142" fill="url(#parts-shine)"/><ellipse cx="422.3294921650174" cy="127.96334473586563" rx="4.390539930863314" ry="2.195269965431657" fill="#29463270"/></g><g data-pbead="B0097" opacity="1"><title>B0097 · head and body</title><circle cx="420.26836208478375" cy="349.0989452297754" r="18.293916378597142" fill="#a9c8a0" stroke="#37543d80" stroke-width=".65"/><circle cx="420.26836208478375" cy="349.0989452297754" r="18.293916378597142" fill="url(#parts-shine)"/><ellipse cx="420.26836208478375" cy="349.0989452297754" rx="4.390539930863314" ry="2.195269965431657" fill="#29463270"/></g><g data-pbead="B0011" opacity="1"><title>B0011 · head and body</title><circle cx="384.43440995228826" cy="144.1807951374629" r="18.293916378597142" fill="#a9c8a0" stroke="#37543d80" stroke-width=".65"/><circle cx="384.43440995228826" cy="144.1807951374629" r="18.293916378597142" fill="url(#parts-shine)"/><ellipse cx="384.43440995228826" cy="144.1807951374629" rx="4.390539930863314" ry="2.195269965431657" fill="#29463270"/></g><g data-pbead="B0082" opacity="1"><title>B0082 · head and body</title><circle cx="542.7584904137842" cy="307.2208380730418" r="18.293916378597142" fill="#a9c8a0" stroke="#37543d80" stroke-width=".65"/><circle cx="542.7584904137842" cy="307.2208380730418" r="18.293916378597142" fill="url(#parts-shine)"/><ellipse cx="542.7584904137842" cy="307.2208380730418" rx="4.390539930863314" ry="2.195269965431657" fill="#29463270"/></g><g data-pbead="B0075" opacity="1"><title>B0075 · head and body</title><circle cx="357.2415095862157" cy="307.2208380730418" r="18.293916378597142" fill="#a9c8a0" stroke="#37543d80" stroke-width=".65"/><circle cx="357.2415095862157" cy="307.2208380730418" r="18.293916378597142" fill="url(#parts-shine)"/><ellipse cx="357.2415095862157" cy="307.2208380730418" rx="4.390539930863314" ry="2.195269965431657" fill="#29463270"/></g><g data-pbead="B0093" opacity="1"><title>B0093 · head and body</title><circle cx="516.6158795308322" cy="332.8814948281782" r="18.293916378597142" fill="#a9c8a0" stroke="#37543d80" stroke-width=".65"/><circle cx="516.6158795308322" cy="332.8814948281782" r="18.293916378597142" fill="url(#parts-shine)"/><ellipse cx="516.6158795308322" cy="332.8814948281782" rx="4.390539930863314" ry="2.195269965431657" fill="#29463270"/></g><g data-pbead="B0053" opacity="1"><title>B0053 · head and body</title><circle cx="565.5784084208008" cy="238.53114498282054" r="18.293916378597142" fill="#a9c8a0" stroke="#37543d80" stroke-width=".65"/><circle cx="565.5784084208008" cy="238.53114498282054" r="18.293916378597142" fill="url(#parts-shine)"/><ellipse cx="565.5784084208008" cy="238.53114498282054" rx="4.390539930863314" ry="2.195269965431657" fill="#29463270"/></g><g data-pbead="B0046" opacity="1"><title>B0046 · head and body</title><circle cx="334.42159157919923" cy="238.53114498282054" r="18.293916378597142" fill="#a9c8a0" stroke="#37543d80" stroke-width=".65"/><circle cx="334.42159157919923" cy="238.53114498282054" r="18.293916378597142" fill="url(#parts-shine)"/><ellipse cx="334.42159157919923" cy="238.53114498282054" rx="4.390539930863314" ry="2.195269965431657" fill="#29463270"/></g><g data-pbead="B0099" opacity="1"><title>B0099 · head and body</title><circle cx="483.9911354039132" cy="349.0989452297754" r="18.293916378597142" fill="#a9c8a0" stroke="#37543d80" stroke-width=".65"/><circle cx="483.9911354039132" cy="349.0989452297754" r="18.293916378597142" fill="url(#parts-shine)"/><ellipse cx="483.9911354039132" cy="349.0989452297754" rx="4.390539930863314" ry="2.195269965431657" fill="#29463270"/></g><g data-pbead="B0025" opacity="1"><title>B0025 · head and body</title><circle cx="543.1492582987139" cy="169.8414518925992" r="18.293916378597142" fill="#a9c8a0" stroke="#37543d80" stroke-width=".65"/><circle cx="543.1492582987139" cy="169.8414518925992" r="18.293916378597142" fill="url(#parts-shine)"/><ellipse cx="543.1492582987139" cy="169.8414518925992" rx="4.390539930863314" ry="2.195269965431657" fill="#29463270"/></g><g data-pbead="B0001" opacity="1"><title>B0001 · head and body</title><circle cx="484.20262865597897" cy="127.96334473586563" r="18.293916378597142" fill="#a9c8a0" stroke="#37543d80" stroke-width=".65"/><circle cx="484.20262865597897" cy="127.96334473586563" r="18.293916378597142" fill="url(#parts-shine)"/><ellipse cx="484.20262865597897" cy="127.96334473586563" rx="4.390539930863314" ry="2.195269965431657" fill="#29463270"/></g><g data-pbead="B0020" opacity="1"><title>B0020 · head and body</title><circle cx="356.85074170128615" cy="169.8414518925992" r="18.293916378597142" fill="#a9c8a0" stroke="#37543d80" stroke-width=".65"/><circle cx="356.85074170128615" cy="169.8414518925992" r="18.293916378597142" fill="url(#parts-shine)"/><ellipse cx="356.85074170128615" cy="169.8414518925992" rx="4.390539930863314" ry="2.195269965431657" fill="#29463270"/></g><g data-pbead="B0088" opacity="1"><title>B0088 · head and body</title><circle cx="383.3841204691678" cy="332.8814948281782" r="18.293916378597142" fill="#a9c8a0" stroke="#37543d80" stroke-width=".65"/><circle cx="383.3841204691678" cy="332.8814948281782" r="18.293916378597142" fill="url(#parts-shine)"/><ellipse cx="383.3841204691678" cy="332.8814948281782" rx="4.390539930863314" ry="2.195269965431657" fill="#29463270"/></g><g data-pbead="B0110" opacity="1"><title>B0110 · right back leg</title><circle cx="558.3252663705308" cy="338.3543899865349" r="18.293916378597142" fill="#679d71" stroke="#37543d80" stroke-width=".65"/><circle cx="558.3252663705308" cy="338.3543899865349" r="18.293916378597142" fill="url(#parts-shine)"/><ellipse cx="558.3252663705308" cy="338.3543899865349" rx="4.390539930863314" ry="2.195269965431657" fill="#29463270"/></g><g data-pbead="B0103" opacity="1"><title>B0103 · left back leg</title><circle cx="341.6747336294692" cy="338.3543899865349" r="18.293916378597142" fill="#679d71" stroke="#37543d80" stroke-width=".65"/><circle cx="341.6747336294692" cy="338.3543899865349" r="18.293916378597142" fill="url(#parts-shine)"/><ellipse cx="341.6747336294692" cy="338.3543899865349" rx="4.390539930863314" ry="2.195269965431657" fill="#29463270"/></g><g data-pbead="B0010" opacity="1"><title>B0010 · head and body</title><circle cx="384.43440995228826" cy="144.1807951374629" r="18.293916378597142" fill="#a9c8a0" stroke="#37543d80" stroke-width=".65"/><circle cx="384.43440995228826" cy="144.1807951374629" r="18.293916378597142" fill="url(#parts-shine)"/><ellipse cx="384.43440995228826" cy="144.1807951374629" rx="4.390539930863314" ry="2.195269965431657" fill="#29463270"/></g><g data-pbead="B0068" opacity="1"><title>B0068 · head and body</title><circle cx="559.0045630117451" cy="274.68526302374573" r="18.293916378597142" fill="#a9c8a0" stroke="#37543d80" stroke-width=".65"/><circle cx="559.0045630117451" cy="274.68526302374573" r="18.293916378597142" fill="url(#parts-shine)"/><ellipse cx="559.0045630117451" cy="274.68526302374573" rx="4.390539930863314" ry="2.195269965431657" fill="#29463270"/></g><g data-pbead="B0060" opacity="1"><title>B0060 · head and body</title><circle cx="340.99543698825494" cy="274.68526302374573" r="18.293916378597142" fill="#a9c8a0" stroke="#37543d80" stroke-width=".65"/><circle cx="340.99543698825494" cy="274.68526302374573" r="18.293916378597142" fill="url(#parts-shine)"/><ellipse cx="340.99543698825494" cy="274.68526302374573" rx="4.390539930863314" ry="2.195269965431657" fill="#29463270"/></g><g data-pbead="B0003" opacity="1"><title>B0003 · head and body</title><circle cx="422.3294921650174" cy="127.96334473586563" r="18.293916378597142" fill="#a9c8a0" stroke="#37543d80" stroke-width=".65"/><circle cx="422.3294921650174" cy="127.96334473586563" r="18.293916378597142" fill="url(#parts-shine)"/><ellipse cx="422.3294921650174" cy="127.96334473586563" rx="4.390539930863314" ry="2.195269965431657" fill="#29463270"/></g><g data-pbead="B0114" opacity="1"><title>B0114 · right front arm</title><circle cx="582.245606285888" cy="307.88675341537845" r="18.293916378597142" fill="#a9c8a0" stroke="#37543d80" stroke-width=".65"/><circle cx="582.245606285888" cy="307.88675341537845" r="18.293916378597142" fill="url(#parts-shine)"/><ellipse cx="582.245606285888" cy="307.88675341537845" rx="4.390539930863314" ry="2.195269965431657" fill="#29463270"/></g><g data-pbead="B0107" opacity="1"><title>B0107 · left front arm</title><circle cx="317.754393714112" cy="307.88675341537845" r="18.293916378597142" fill="#a9c8a0" stroke="#37543d80" stroke-width=".65"/><circle cx="317.754393714112" cy="307.88675341537845" r="18.293916378597142" fill="url(#parts-shine)"/><ellipse cx="317.754393714112" cy="307.88675341537845" rx="4.390539930863314" ry="2.195269965431657" fill="#29463270"/></g><g data-pbead="B0031" opacity="1"><title>B0031 · head and body</title><circle cx="342.4574064247685" cy="202.37702694189534" r="18.293916378597142" fill="#a9c8a0" stroke="#37543d80" stroke-width=".65"/><circle cx="342.4574064247685" cy="202.37702694189534" r="18.293916378597142" fill="url(#parts-shine)"/><ellipse cx="342.4574064247685" cy="202.37702694189534" rx="4.390539930863314" ry="2.195269965431657" fill="#29463270"/></g><g data-pbead="B0039" opacity="1"><title>B0039 · head and body</title><circle cx="557.5425935752314" cy="202.37702694189534" r="18.293916378597142" fill="#a9c8a0" stroke="#37543d80" stroke-width=".65"/><circle cx="557.5425935752314" cy="202.37702694189534" r="18.293916378597142" fill="url(#parts-shine)"/><ellipse cx="557.5425935752314" cy="202.37702694189534" rx="4.390539930863314" ry="2.195269965431657" fill="#29463270"/></g><g data-pbead="B0096" opacity="1"><title>B0096 · head and body</title><circle cx="424.7328255154848" cy="349.0989452297754" r="18.293916378597142" fill="#a9c8a0" stroke="#37543d80" stroke-width=".65"/><circle cx="424.7328255154848" cy="349.0989452297754" r="18.293916378597142" fill="url(#parts-shine)"/><ellipse cx="424.7328255154848" cy="349.0989452297754" rx="4.390539930863314" ry="2.195269965431657" fill="#29463270"/></g><g data-pbead="B0115" opacity="1"><title>B0115 · right front arm</title><circle cx="598.0917721546218" cy="330.5241332278553" r="18.293916378597142" fill="#a9c8a0" stroke="#37543d80" stroke-width=".65"/><circle cx="598.0917721546218" cy="330.5241332278553" r="18.293916378597142" fill="url(#parts-shine)"/><ellipse cx="598.0917721546218" cy="330.5241332278553" rx="4.390539930863314" ry="2.195269965431657" fill="#29463270"/></g><g data-pbead="B0108" opacity="1"><title>B0108 · left front arm</title><circle cx="301.9082278453782" cy="330.5241332278553" r="18.293916378597142" fill="#a9c8a0" stroke="#37543d80" stroke-width=".65"/><circle cx="301.9082278453782" cy="330.5241332278553" r="18.293916378597142" fill="url(#parts-shine)"/><ellipse cx="301.9082278453782" cy="330.5241332278553" rx="4.390539930863314" ry="2.195269965431657" fill="#29463270"/></g><g data-pbead="B0006" opacity="1"><title>B0006 · head and body</title><circle cx="511.23528485967677" cy="144.1807951374629" r="18.293916378597142" fill="#a9c8a0" stroke="#37543d80" stroke-width=".65"/><circle cx="511.23528485967677" cy="144.1807951374629" r="18.293916378597142" fill="url(#parts-shine)"/><ellipse cx="511.23528485967677" cy="144.1807951374629" rx="4.390539930863314" ry="2.195269965431657" fill="#29463270"/></g><g data-pbead="B0111" opacity="1"><title>B0111 · right back leg</title><circle cx="568.9389772501307" cy="359.58181174573474" r="18.293916378597142" fill="#679d71" stroke="#37543d80" stroke-width=".65"/><circle cx="568.9389772501307" cy="359.58181174573474" r="18.293916378597142" fill="url(#parts-shine)"/><ellipse cx="568.9389772501307" cy="359.58181174573474" rx="4.390539930863314" ry="2.195269965431657" fill="#29463270"/></g><g data-pbead="B0104" opacity="1"><title>B0104 · left back leg</title><circle cx="331.0610227498693" cy="359.58181174573474" r="18.293916378597142" fill="#679d71" stroke="#37543d80" stroke-width=".65"/><circle cx="331.0610227498693" cy="359.58181174573474" r="18.293916378597142" fill="url(#parts-shine)"/><ellipse cx="331.0610227498693" cy="359.58181174573474" rx="4.390539930863314" ry="2.195269965431657" fill="#29463270"/></g><g data-pbead="B0083" opacity="1"><title>B0083 · head and body</title><circle cx="538.5902090930523" cy="307.2208380730418" r="18.293916378597142" fill="#a9c8a0" stroke="#37543d80" stroke-width=".65"/><circle cx="538.5902090930523" cy="307.2208380730418" r="18.293916378597142" fill="url(#parts-shine)"/><ellipse cx="538.5902090930523" cy="307.2208380730418" rx="4.390539930863314" ry="2.195269965431657" fill="#29463270"/></g><g data-pbead="B0074" opacity="1"><title>B0074 · head and body</title><circle cx="361.40979090694776" cy="307.2208380730418" r="18.293916378597142" fill="#a9c8a0" stroke="#37543d80" stroke-width=".65"/><circle cx="361.40979090694776" cy="307.2208380730418" r="18.293916378597142" fill="url(#parts-shine)"/><ellipse cx="361.40979090694776" cy="307.2208380730418" rx="4.390539930863314" ry="2.195269965431657" fill="#29463270"/></g><g data-pbead="B0116" opacity="1"><title>B0116 · right front arm</title><circle cx="613.9379380233556" cy="353.16151304033224" r="18.293916378597142" fill="#a9c8a0" stroke="#37543d80" stroke-width=".65"/><circle cx="613.9379380233556" cy="353.16151304033224" r="18.293916378597142" fill="url(#parts-shine)"/><ellipse cx="613.9379380233556" cy="353.16151304033224" rx="4.390539930863314" ry="2.195269965431657" fill="#29463270"/></g><g data-pbead="B0109" opacity="1"><title>B0109 · left front arm</title><circle cx="286.0620619766444" cy="353.16151304033224" r="18.293916378597142" fill="#a9c8a0" stroke="#37543d80" stroke-width=".65"/><circle cx="286.0620619766444" cy="353.16151304033224" r="18.293916378597142" fill="url(#parts-shine)"/><ellipse cx="286.0620619766444" cy="353.16151304033224" rx="4.390539930863314" ry="2.195269965431657" fill="#29463270"/></g><g data-pbead="B0100" opacity="1"><title>B0100 · head and body</title><circle cx="464.1156652841118" cy="349.0989452297754" r="18.293916378597142" fill="#a9c8a0" stroke="#37543d80" stroke-width=".65"/><circle cx="464.1156652841118" cy="349.0989452297754" r="18.293916378597142" fill="url(#parts-shine)"/><ellipse cx="464.1156652841118" cy="349.0989452297754" rx="4.390539930863314" ry="2.195269965431657" fill="#29463270"/></g><g data-pbead="B0002" opacity="1"><title>B0002 · head and body</title><circle cx="460.5691935069931" cy="127.96334473586563" r="18.293916378597142" fill="#a9c8a0" stroke="#37543d80" stroke-width=".65"/><circle cx="460.5691935069931" cy="127.96334473586563" r="18.293916378597142" fill="url(#parts-shine)"/><ellipse cx="460.5691935069931" cy="127.96334473586563" rx="4.390539930863314" ry="2.195269965431657" fill="#29463270"/></g><g data-pbead="B0094" opacity="1"><title>B0094 · head and body</title><circle cx="508.2681097903648" cy="332.8814948281782" r="18.293916378597142" fill="#a9c8a0" stroke="#37543d80" stroke-width=".65"/><circle cx="508.2681097903648" cy="332.8814948281782" r="18.293916378597142" fill="url(#parts-shine)"/><ellipse cx="508.2681097903648" cy="332.8814948281782" rx="4.390539930863314" ry="2.195269965431657" fill="#29463270"/></g><g data-pbead="B0054" opacity="1"><title>B0054 · head and body</title><circle cx="560.0724489373729" cy="238.53114498282054" r="18.293916378597142" fill="#a9c8a0" stroke="#37543d80" stroke-width=".65"/><circle cx="560.0724489373729" cy="238.53114498282054" r="18.293916378597142" fill="url(#parts-shine)"/><ellipse cx="560.0724489373729" cy="238.53114498282054" rx="4.390539930863314" ry="2.195269965431657" fill="#29463270"/></g><g data-pbead="B0045" opacity="1"><title>B0045 · head and body</title><circle cx="339.9275510626271" cy="238.53114498282054" r="18.293916378597142" fill="#a9c8a0" stroke="#37543d80" stroke-width=".65"/><circle cx="339.9275510626271" cy="238.53114498282054" r="18.293916378597142" fill="url(#parts-shine)"/><ellipse cx="339.9275510626271" cy="238.53114498282054" rx="4.390539930863314" ry="2.195269965431657" fill="#29463270"/></g><g data-pbead="B0112" opacity="1"><title>B0112 · right back leg</title><circle cx="579.5526881297307" cy="380.8092335049345" r="18.293916378597142" fill="#679d71" stroke="#37543d80" stroke-width=".65"/><circle cx="579.5526881297307" cy="380.8092335049345" r="18.293916378597142" fill="url(#parts-shine)"/><ellipse cx="579.5526881297307" cy="380.8092335049345" rx="4.390539930863314" ry="2.195269965431657" fill="#29463270"/></g><g data-pbead="B0105" opacity="1"><title>B0105 · left back leg</title><circle cx="320.44731187026935" cy="380.8092335049345" r="18.293916378597142" fill="#679d71" stroke="#37543d80" stroke-width=".65"/><circle cx="320.44731187026935" cy="380.8092335049345" r="18.293916378597142" fill="url(#parts-shine)"/><ellipse cx="320.44731187026935" cy="380.8092335049345" rx="4.390539930863314" ry="2.195269965431657" fill="#29463270"/></g><g data-pbead="B0040" opacity="1"><title>B0040 · head and body</title><circle cx="550.4399006755767" cy="202.37702694189534" r="18.293916378597142" fill="#a9c8a0" stroke="#37543d80" stroke-width=".65"/><circle cx="550.4399006755767" cy="202.37702694189534" r="18.293916378597142" fill="url(#parts-shine)"/><ellipse cx="550.4399006755767" cy="202.37702694189534" rx="4.390539930863314" ry="2.195269965431657" fill="#29463270"/></g><g data-pbead="B0030" opacity="1"><title>B0030 · head and body</title><circle cx="349.56009932442333" cy="202.37702694189534" r="18.293916378597142" fill="#a9c8a0" stroke="#37543d80" stroke-width=".65"/><circle cx="349.56009932442333" cy="202.37702694189534" r="18.293916378597142" fill="url(#parts-shine)"/><ellipse cx="349.56009932442333" cy="202.37702694189534" rx="4.390539930863314" ry="2.195269965431657" fill="#29463270"/></g><g data-pbead="B0087" opacity="1"><title>B0087 · head and body</title><circle cx="400.4813525190099" cy="332.8814948281782" r="18.293916378597142" fill="#a9c8a0" stroke="#37543d80" stroke-width=".65"/><circle cx="400.4813525190099" cy="332.8814948281782" r="18.293916378597142" fill="url(#parts-shine)"/><ellipse cx="400.4813525190099" cy="332.8814948281782" rx="4.390539930863314" ry="2.195269965431657" fill="#29463270"/></g><g data-pbead="B0007" opacity="1"><title>B0007 · head and body</title><circle cx="494.85206832996266" cy="144.1807951374629" r="18.293916378597142" fill="#a9c8a0" stroke="#37543d80" stroke-width=".65"/><circle cx="494.85206832996266" cy="144.1807951374629" r="18.293916378597142" fill="url(#parts-shine)"/><ellipse cx="494.85206832996266" cy="144.1807951374629" rx="4.390539930863314" ry="2.195269965431657" fill="#29463270"/></g><g data-pbead="B0069" opacity="1"><title>B0069 · head and body</title><circle cx="546.621687261782" cy="274.68526302374573" r="18.293916378597142" fill="#a9c8a0" stroke="#37543d80" stroke-width=".65"/><circle cx="546.621687261782" cy="274.68526302374573" r="18.293916378597142" fill="url(#parts-shine)"/><ellipse cx="546.621687261782" cy="274.68526302374573" rx="4.390539930863314" ry="2.195269965431657" fill="#29463270"/></g><g data-pbead="B0059" opacity="1"><title>B0059 · head and body</title><circle cx="353.378312738218" cy="274.68526302374573" r="18.293916378597142" fill="#a9c8a0" stroke="#37543d80" stroke-width=".65"/><circle cx="353.378312738218" cy="274.68526302374573" r="18.293916378597142" fill="url(#parts-shine)"/><ellipse cx="353.378312738218" cy="274.68526302374573" rx="4.390539930863314" ry="2.195269965431657" fill="#29463270"/></g><g data-pbead="B0016" opacity="1"><title>B0016 · head and body</title><circle cx="525.3593329770811" cy="169.8414518925992" r="18.293916378597142" fill="#a9c8a0" stroke="#37543d80" stroke-width=".65"/><circle cx="525.3593329770811" cy="169.8414518925992" r="18.293916378597142" fill="url(#parts-shine)"/><ellipse cx="525.3593329770811" cy="169.8414518925992" rx="4.390539930863314" ry="2.195269965431657" fill="#29463270"/></g><g data-pbead="B0019" opacity="1"><title>B0019 · head and body</title><circle cx="374.6406670229189" cy="169.8414518925992" r="18.293916378597142" fill="#a9c8a0" stroke="#37543d80" stroke-width=".65"/><circle cx="374.6406670229189" cy="169.8414518925992" r="18.293916378597142" fill="url(#parts-shine)"/><ellipse cx="374.6406670229189" cy="169.8414518925992" rx="4.390539930863314" ry="2.195269965431657" fill="#29463270"/></g><g data-pbead="B0113" opacity="1"><title>B0113 · right back leg</title><circle cx="590.1663990093305" cy="402.03665526413437" r="18.293916378597142" fill="#679d71" stroke="#37543d80" stroke-width=".65"/><circle cx="590.1663990093305" cy="402.03665526413437" r="18.293916378597142" fill="url(#parts-shine)"/><ellipse cx="590.1663990093305" cy="402.03665526413437" rx="4.390539930863314" ry="2.195269965431657" fill="#29463270"/></g><g data-pbead="B0106" opacity="1"><title>B0106 · left back leg</title><circle cx="309.8336009906695" cy="402.03665526413437" r="18.293916378597142" fill="#679d71" stroke="#37543d80" stroke-width=".65"/><circle cx="309.8336009906695" cy="402.03665526413437" r="18.293916378597142" fill="url(#parts-shine)"/><ellipse cx="309.8336009906695" cy="402.03665526413437" rx="4.390539930863314" ry="2.195269965431657" fill="#29463270"/></g><g data-pbead="B0009" opacity="1"><title>B0009 · head and body</title><circle cx="416.4848178339729" cy="144.1807951374629" r="18.293916378597142" fill="#a9c8a0" stroke="#37543d80" stroke-width=".65"/><circle cx="416.4848178339729" cy="144.1807951374629" r="18.293916378597142" fill="url(#parts-shine)"/><ellipse cx="416.4848178339729" cy="144.1807951374629" rx="4.390539930863314" ry="2.195269965431657" fill="#29463270"/></g><g data-pbead="B0095" opacity="1"><title>B0095 · head and body</title><circle cx="477.66390257018855" cy="332.8814948281782" r="18.293916378597142" fill="#a9c8a0" stroke="#37543d80" stroke-width=".65"/><circle cx="477.66390257018855" cy="332.8814948281782" r="18.293916378597142" fill="url(#parts-shine)"/><ellipse cx="477.66390257018855" cy="332.8814948281782" rx="4.390539930863314" ry="2.195269965431657" fill="#29463270"/></g><g data-pbead="B0073" opacity="1"><title>B0073 · head and body</title><circle cx="379.9666795738854" cy="307.2208380730418" r="18.293916378597142" fill="#a9c8a0" stroke="#37543d80" stroke-width=".65"/><circle cx="379.9666795738854" cy="307.2208380730418" r="18.293916378597142" fill="url(#parts-shine)"/><ellipse cx="379.9666795738854" cy="307.2208380730418" rx="4.390539930863314" ry="2.195269965431657" fill="#29463270"/></g><g data-pbead="B0084" opacity="1"><title>B0084 · head and body</title><circle cx="520.0333204261146" cy="307.2208380730418" r="18.293916378597142" fill="#a9c8a0" stroke="#37543d80" stroke-width=".65"/><circle cx="520.0333204261146" cy="307.2208380730418" r="18.293916378597142" fill="url(#parts-shine)"/><ellipse cx="520.0333204261146" cy="307.2208380730418" rx="4.390539930863314" ry="2.195269965431657" fill="#29463270"/></g><g data-pbead="B0086" opacity="1"><title>B0086 · head and body</title><circle cx="436.49302482966584" cy="332.8814948281782" r="18.293916378597142" fill="#a9c8a0" stroke="#37543d80" stroke-width=".65"/><circle cx="436.49302482966584" cy="332.8814948281782" r="18.293916378597142" fill="url(#parts-shine)"/><ellipse cx="436.49302482966584" cy="332.8814948281782" rx="4.390539930863314" ry="2.195269965431657" fill="#29463270"/></g><g data-pbead="B0008" opacity="1"><title>B0008 · head and body</title><circle cx="442.99341902409947" cy="144.1807951374629" r="18.293916378597142" fill="#a9c8a0" stroke="#37543d80" stroke-width=".65"/><circle cx="442.99341902409947" cy="144.1807951374629" r="18.293916378597142" fill="url(#parts-shine)"/><ellipse cx="442.99341902409947" cy="144.1807951374629" rx="4.390539930863314" ry="2.195269965431657" fill="#29463270"/></g><g data-pbead="B0055" opacity="1"><title>B0055 · head and body</title><circle cx="539.9445592282873" cy="238.53114498282054" r="18.293916378597142" fill="#a9c8a0" stroke="#37543d80" stroke-width=".65"/><circle cx="539.9445592282873" cy="238.53114498282054" r="18.293916378597142" fill="url(#parts-shine)"/><ellipse cx="539.9445592282873" cy="238.53114498282054" rx="4.390539930863314" ry="2.195269965431657" fill="#29463270"/></g><g data-pbead="B0044" opacity="1"><title>B0044 · head and body</title><circle cx="360.05544077171277" cy="238.53114498282054" r="18.293916378597142" fill="#a9c8a0" stroke="#37543d80" stroke-width=".65"/><circle cx="360.05544077171277" cy="238.53114498282054" r="18.293916378597142" fill="url(#parts-shine)"/><ellipse cx="360.05544077171277" cy="238.53114498282054" rx="4.390539930863314" ry="2.195269965431657" fill="#29463270"/></g><g data-pbead="B0085" opacity="1"><title>B0085 · head and body</title><circle cx="486.77009744016857" cy="307.2208380730418" r="18.293916378597142" fill="#e6e8be" stroke="#37543d80" stroke-width=".65"/><circle cx="486.77009744016857" cy="307.2208380730418" r="18.293916378597142" fill="url(#parts-shine)"/><ellipse cx="486.77009744016857" cy="307.2208380730418" rx="4.390539930863314" ry="2.195269965431657" fill="#29463270"/></g><g data-pbead="B0072" opacity="1"><title>B0072 · head and body</title><circle cx="413.2299025598315" cy="307.2208380730418" r="18.293916378597142" fill="#e6e8be" stroke="#37543d80" stroke-width=".65"/><circle cx="413.2299025598315" cy="307.2208380730418" r="18.293916378597142" fill="url(#parts-shine)"/><ellipse cx="413.2299025598315" cy="307.2208380730418" rx="4.390539930863314" ry="2.195269965431657" fill="#29463270"/></g><g data-pbead="B0017" opacity="1"><title>B0017 · head and body</title><circle cx="478.7847038277242" cy="169.8414518925992" r="18.293916378597142" fill="#a9c8a0" stroke="#37543d80" stroke-width=".65"/><circle cx="478.7847038277242" cy="169.8414518925992" r="18.293916378597142" fill="url(#parts-shine)"/><ellipse cx="478.7847038277242" cy="169.8414518925992" rx="4.390539930863314" ry="2.195269965431657" fill="#29463270"/></g><g data-pbead="B0018" opacity="1"><title>B0018 · head and body</title><circle cx="421.2152961722758" cy="169.8414518925992" r="18.293916378597142" fill="#a9c8a0" stroke="#37543d80" stroke-width=".65"/><circle cx="421.2152961722758" cy="169.8414518925992" r="18.293916378597142" fill="url(#parts-shine)"/><ellipse cx="421.2152961722758" cy="169.8414518925992" rx="4.390539930863314" ry="2.195269965431657" fill="#29463270"/></g><g data-pbead="B0070" opacity="1"><title>B0070 · head and body</title><circle cx="514.6241430734817" cy="274.68526302374573" r="18.293916378597142" fill="#e6e8be" stroke="#37543d80" stroke-width=".65"/><circle cx="514.6241430734817" cy="274.68526302374573" r="18.293916378597142" fill="url(#parts-shine)"/><ellipse cx="514.6241430734817" cy="274.68526302374573" rx="4.390539930863314" ry="2.195269965431657" fill="#29463270"/></g><g data-pbead="B0026" opacity="1"><title>B0026 · head and body</title><circle cx="514.6241430734817" cy="202.37702694189534" r="18.293916378597142" fill="#a9c8a0" stroke="#37543d80" stroke-width=".65"/><circle cx="514.6241430734817" cy="202.37702694189534" r="18.293916378597142" fill="url(#parts-shine)"/><ellipse cx="514.6241430734817" cy="202.37702694189534" rx="4.390539930863314" ry="2.195269965431657" fill="#29463270"/></g><g data-pbead="B0029" opacity="1"><title>B0029 · head and body</title><circle cx="385.3758569265183" cy="202.37702694189534" r="18.293916378597142" fill="#a9c8a0" stroke="#37543d80" stroke-width=".65"/><circle cx="385.3758569265183" cy="202.37702694189534" r="18.293916378597142" fill="url(#parts-shine)"/><ellipse cx="385.3758569265183" cy="202.37702694189534" rx="4.390539930863314" ry="2.195269965431657" fill="#29463270"/></g><g data-pbead="B0058" opacity="1"><title>B0058 · head and body</title><circle cx="385.3758569265183" cy="274.68526302374573" r="18.293916378597142" fill="#e6e8be" stroke="#37543d80" stroke-width=".65"/><circle cx="385.3758569265183" cy="274.68526302374573" r="18.293916378597142" fill="url(#parts-shine)"/><ellipse cx="385.3758569265183" cy="274.68526302374573" rx="4.390539930863314" ry="2.195269965431657" fill="#29463270"/></g><g data-pbead="B0101" opacity="1"><title>B0101 · left black eye bead</title><circle cx="385.3758569265183" cy="202.37702694189534" r="36.587832757194285" fill="#416444" stroke="#37543d80" stroke-width=".65"/><circle cx="385.3758569265183" cy="202.37702694189534" r="36.587832757194285" fill="url(#parts-shine)"/><ellipse cx="385.3758569265183" cy="202.37702694189534" rx="8.781079861726628" ry="4.390539930863314" fill="#29463270"/></g><g data-pbead="B0102" opacity="1"><title>B0102 · right black eye bead</title><circle cx="514.6241430734817" cy="202.37702694189534" r="36.587832757194285" fill="#171c16" stroke="#37543d80" stroke-width=".65"/><circle cx="514.6241430734817" cy="202.37702694189534" r="36.587832757194285" fill="url(#parts-shine)"/><ellipse cx="514.6241430734817" cy="202.37702694189534" rx="8.781079861726628" ry="4.390539930863314" fill="#29463270"/></g><g data-pbead="B0071" opacity="1"><title>B0071 · head and body</title><circle cx="450" cy="307.2208380730418" r="18.293916378597142" fill="#e6e8be" stroke="#37543d80" stroke-width=".65"/><circle cx="450" cy="307.2208380730418" r="18.293916378597142" fill="url(#parts-shine)"/><ellipse cx="450" cy="307.2208380730418" rx="4.390539930863314" ry="2.195269965431657" fill="#29463270"/></g><g data-pbead="B0041" opacity="1"><title>B0041 · head and body</title><circle cx="491.47643925597595" cy="238.53114498282054" r="18.293916378597142" fill="#e6e8be" stroke="#37543d80" stroke-width=".65"/><circle cx="491.47643925597595" cy="238.53114498282054" r="18.293916378597142" fill="url(#parts-shine)"/><ellipse cx="491.47643925597595" cy="238.53114498282054" rx="4.390539930863314" ry="2.195269965431657" fill="#29463270"/></g><g data-pbead="B0043" opacity="1"><title>B0043 · head and body</title><circle cx="408.52356074402405" cy="238.53114498282054" r="18.293916378597142" fill="#e6e8be" stroke="#37543d80" stroke-width=".65"/><circle cx="408.52356074402405" cy="238.53114498282054" r="18.293916378597142" fill="url(#parts-shine)"/><ellipse cx="408.52356074402405" cy="238.53114498282054" rx="4.390539930863314" ry="2.195269965431657" fill="#29463270"/></g><g data-pbead="B0056" opacity="1"><title>B0056 · head and body</title><circle cx="470.0359138419072" cy="274.68526302374573" r="18.293916378597142" fill="#e6e8be" stroke="#37543d80" stroke-width=".65"/><circle cx="470.0359138419072" cy="274.68526302374573" r="18.293916378597142" fill="url(#parts-shine)"/><ellipse cx="470.0359138419072" cy="274.68526302374573" rx="4.390539930863314" ry="2.195269965431657" fill="#29463270"/></g><g data-pbead="B0057" opacity="1"><title>B0057 · head and body</title><circle cx="429.96408615809287" cy="274.68526302374573" r="18.293916378597142" fill="#e6e8be" stroke="#37543d80" stroke-width=".65"/><circle cx="429.96408615809287" cy="274.68526302374573" r="18.293916378597142" fill="url(#parts-shine)"/><ellipse cx="429.96408615809287" cy="274.68526302374573" rx="4.390539930863314" ry="2.195269965431657" fill="#29463270"/></g><g data-pbead="B0027" opacity="1"><title>B0027 · head and body</title><circle cx="461.492398523294" cy="202.37702694189534" r="18.293916378597142" fill="#a9c8a0" stroke="#37543d80" stroke-width=".65"/><circle cx="461.492398523294" cy="202.37702694189534" r="18.293916378597142" fill="url(#parts-shine)"/><ellipse cx="461.492398523294" cy="202.37702694189534" rx="4.390539930863314" ry="2.195269965431657" fill="#29463270"/></g><g data-pbead="B0028" opacity="1"><title>B0028 · head and body</title><circle cx="438.507601476706" cy="202.37702694189534" r="18.293916378597142" fill="#a9c8a0" stroke="#37543d80" stroke-width=".65"/><circle cx="438.507601476706" cy="202.37702694189534" r="18.293916378597142" fill="url(#parts-shine)"/><ellipse cx="438.507601476706" cy="202.37702694189534" rx="4.390539930863314" ry="2.195269965431657" fill="#29463270"/></g><g data-pbead="B0042" opacity="1"><title>B0042 · head and body</title><circle cx="450" cy="238.53114498282054" r="18.293916378597142" fill="#e6e8be" stroke="#37543d80" stroke-width=".65"/><circle cx="450" cy="238.53114498282054" r="18.293916378597142" fill="url(#parts-shine)"/><ellipse cx="450" cy="238.53114498282054" rx="4.390539930863314" ry="2.195269965431657" fill="#29463270"/></g><text x="22" y="513" font-family="Arial" font-size="12" fill="#907084">shaped beadwork · fine lines show thread; dashed lines are joins</text></svg>